<?xml version="1.0" standalone="no"?>
<!DOCTYPE svg PUBLIC "-//W3C//DTD SVG 20010904//EN"
 "http://www.w3.org/TR/2001/REC-SVG-20010904/DTD/svg10.dtd">
<svg version="1.0" xmlns="http://www.w3.org/2000/svg"
 width="1024.000000pt" height="1024.000000pt" viewBox="0 0 1024.000000 1024.000000"
 preserveAspectRatio="xMidYMid meet">
<metadata>
Created by potrace 1.14, written by Peter Selinger 2001-2017
</metadata>
<g transform="translate(0.000000,1024.000000) scale(0.100000,-0.100000)"
fill="#000000" stroke="none">
<path d="M4865 9690 c-113 -16 -283 -59 -347 -88 -34 -16 -127 -73 -206 -126
-79 -54 -157 -102 -174 -108 -42 -15 -21 -31 36 -27 32 3 46 0 46 -8 0 -9 -16
-13 -46 -13 -42 0 -47 -3 -57 -30 -8 -20 -18 -30 -32 -30 -18 1 -19 1 -2 11
11 6 17 22 17 43 l0 33 -97 -28 c-54 -16 -107 -33 -118 -38 -11 -5 -41 -16
-66 -25 -39 -14 -254 -146 -269 -165 -3 -3 -25 -19 -50 -35 -64 -42 -237 -217
-302 -306 -52 -73 -138 -214 -138 -229 0 -4 -8 -25 -19 -47 -28 -61 -88 -241
-105 -319 -16 -74 -46 -408 -53 -587 -5 -116 15 -344 48 -533 13 -77 19 -152
17 -210 l-3 -90 46 0 46 0 13 -245 c10 -197 10 -348 1 -390 -3 -13 -21 27 -21
46 0 12 -6 27 -14 33 -21 18 -36 -44 -36 -149 0 -106 6 -127 35 -132 19 -4 24
0 29 25 10 50 7 142 -6 155 -9 9 -8 12 5 12 24 0 31 -39 23 -149 -7 -96 -6
-99 26 -167 31 -65 33 -77 40 -219 4 -82 14 -190 22 -240 9 -49 18 -109 20
-132 3 -23 12 -55 20 -70 9 -15 22 -66 31 -113 8 -47 20 -107 26 -135 6 -27
14 -72 19 -100 22 -128 63 -287 111 -429 17 -48 28 -90 25 -93 -8 -9 -66 122
-66 149 0 14 -9 46 -20 71 -11 24 -26 79 -34 120 -8 42 -20 85 -26 96 -6 12
-15 58 -21 103 -6 45 -15 88 -20 94 -5 7 -13 55 -18 107 -7 83 -12 101 -40
144 -18 26 -34 46 -37 43 -9 -10 -63 35 -78 67 -9 18 -20 33 -26 33 -5 0 -10
6 -10 14 0 7 -6 19 -14 25 -9 8 -17 41 -20 89 -4 42 -13 114 -22 159 -27 149
-45 356 -42 508 1 123 -2 159 -16 199 -13 35 -18 77 -17 145 0 60 -5 107 -13
126 l-14 30 -16 -37 c-20 -46 -20 -121 0 -263 8 -60 19 -198 24 -305 9 -222
34 -457 55 -544 18 -70 36 -110 88 -196 90 -148 107 -179 135 -251 17 -43 36
-124 47 -194 25 -169 56 -286 157 -590 32 -98 76 -187 148 -305 94 -153 102
-214 46 -357 -19 -48 -46 -131 -61 -183 -30 -102 -75 -202 -125 -275 -45 -65
-143 -168 -177 -185 -15 -8 -35 -19 -43 -25 -8 -7 -40 -22 -70 -35 -102 -42
-224 -105 -315 -161 -49 -31 -121 -73 -160 -94 -38 -21 -93 -52 -120 -69 -28
-17 -87 -49 -130 -71 -44 -22 -82 -42 -85 -45 -5 -5 -279 -142 -290 -145 -3
-1 -36 -16 -75 -35 -201 -94 -262 -121 -275 -122 -3 0 -16 -6 -30 -14 -14 -7
-101 -50 -195 -95 -93 -44 -189 -94 -213 -110 -24 -16 -45 -29 -47 -29 -2 0
-53 -34 -114 -75 -60 -41 -115 -75 -121 -75 -6 0 -8 -4 -5 -10 3 -5 1 -10 -5
-10 -20 0 -152 -96 -324 -235 -54 -44 -111 -89 -126 -100 -53 -39 -223 -204
-258 -250 -12 -16 -43 -70 -68 -119 -32 -62 -55 -93 -76 -105 l-30 -16 6 -170
c3 -93 6 -276 6 -405 0 -157 4 -229 10 -218 6 9 9 27 8 40 -2 14 2 22 10 20
16 -3 16 25 0 32 -7 3 -4 4 7 3 12 -2 19 -10 19 -20 -1 -11 8 -19 25 -23 14
-3 41 -10 58 -16 18 -5 37 -7 42 -3 10 5 32 -9 72 -47 33 -31 67 -33 96 -7 18
17 27 20 30 12 6 -17 18 -16 37 2 11 11 21 13 40 5 14 -5 26 -13 26 -17 0 -10
63 -9 107 1 22 5 33 4 33 -3 0 -6 20 -11 46 -11 36 0 45 3 41 15 -7 17 8 29
23 20 8 -5 8 -11 0 -20 -8 -9 -3 -14 21 -19 71 -14 114 -5 114 23 0 8 6 16 14
19 10 3 12 -1 8 -17 -3 -14 0 -21 9 -21 8 0 14 9 14 19 0 16 18 31 37 31 3 0
2 -11 -1 -25 -8 -31 -3 -31 24 -3 21 23 41 18 21 -6 -7 -8 -8 -16 -4 -19 13
-8 411 -3 419 6 4 4 16 7 26 7 10 0 18 7 18 15 0 19 16 19 24 0 7 -20 36 -19
36 0 0 13 4 14 20 5 11 -6 20 -17 20 -26 0 -11 4 -12 18 -5 13 7 23 6 31 -2
10 -9 14 -8 22 6 8 13 14 15 23 8 9 -8 25 -5 56 10 30 15 45 18 53 10 8 -8 6
-11 -5 -11 -9 0 -19 -4 -22 -8 -6 -10 110 -7 136 3 21 9 41 -3 31 -18 -3 -7 3
-4 15 6 13 12 28 16 40 12 11 -3 23 -1 26 4 10 15 38 1 32 -15 -3 -8 1 -14 10
-14 9 0 18 9 21 19 3 12 11 17 20 14 8 -3 12 -12 9 -19 -7 -17 25 -19 42 -2 9
9 12 9 12 0 0 -17 30 -15 36 3 8 19 34 19 34 0 0 -22 21 -18 27 5 3 11 12 20
20 20 10 0 14 -7 10 -19 -4 -16 1 -18 42 -16 25 2 63 4 84 4 21 1 36 5 33 10
-3 5 -15 7 -26 4 -11 -3 -20 -1 -20 5 0 5 16 12 35 14 38 4 62 -11 44 -29 -12
-12 185 -10 215 2 11 5 21 3 25 -4 6 -9 11 -8 21 4 16 19 40 20 40 0 0 -22 17
-18 30 5 12 23 35 17 26 -7 -4 -9 -1 -13 6 -10 7 2 12 12 12 21 -1 10 6 16 17
16 12 0 19 -7 19 -20 0 -13 5 -18 15 -14 8 4 12 11 9 16 -4 6 0 14 7 19 20 13
29 11 29 -6 0 -8 -5 -15 -11 -15 -5 0 -7 -5 -4 -10 9 -14 35 7 35 26 0 8 9 14
20 14 23 0 26 -10 8 -29 -11 -11 -9 -13 9 -8 13 3 26 1 29 -4 3 -5 14 -4 26 2
14 8 23 8 31 0 7 -7 16 -7 30 0 13 8 22 8 29 1 7 -7 17 -7 31 1 15 9 21 9 24
0 6 -15 33 -17 33 -3 0 6 7 10 15 10 8 0 15 -4 15 -10 0 -5 7 -10 15 -10 8 0
15 7 15 15 0 8 7 15 15 15 8 0 15 -7 15 -15 0 -20 26 -19 34 1 3 8 10 12 16 9
6 -4 8 -11 5 -16 -4 -5 3 -9 14 -9 10 0 22 6 24 13 4 8 8 9 14 1 9 -12 504
-11 542 1 15 5 26 3 31 -6 7 -10 11 -10 24 0 13 11 19 11 30 2 11 -9 20 -9 34
-2 11 6 22 7 26 3 11 -11 270 -10 284 2 10 7 16 6 22 -4 7 -12 13 -12 35 0 21
11 28 12 34 1 7 -10 12 -10 30 1 18 11 23 11 31 -2 8 -12 11 -12 28 3 23 21
36 22 28 2 -7 -18 24 -21 42 -3 9 9 12 9 12 -1 0 -10 42 -11 208 -6 114 3 236
6 271 5 54 -1 63 1 58 14 -4 10 -1 16 8 16 8 0 15 -9 15 -20 0 -13 5 -18 15
-14 8 4 15 12 15 20 0 8 7 14 15 14 9 0 15 -9 15 -21 0 -15 4 -19 15 -15 8 3
22 9 30 12 8 3 15 1 15 -5 0 -16 16 -13 35 6 14 13 18 14 25 3 7 -11 11 -11
25 0 27 22 35 53 17 66 -11 8 -12 15 -3 31 7 14 9 62 6 132 -3 92 -8 118 -27
152 -17 30 -19 42 -10 48 16 10 11 53 -8 68 -13 10 -13 15 -2 33 8 12 9 19 3
15 -14 -8 -14 11 0 36 6 13 17 18 26 15 10 -4 13 -2 10 7 -6 17 28 73 36 60 4
-6 2 -50 -3 -99 -4 -49 -7 -123 -5 -164 1 -41 4 -153 5 -247 l2 -173 49 2 c27
0 52 5 55 9 3 5 16 9 30 9 21 0 23 3 15 19 -10 18 -6 31 11 31 5 0 7 -4 3 -9
-3 -5 4 -16 16 -25 12 -8 18 -19 14 -25 -10 -17 21 -13 35 4 17 20 34 19 26
-1 -5 -12 -2 -15 10 -10 8 3 17 6 20 6 2 0 1 7 -3 16 -4 12 -1 15 13 12 11 -2
18 -11 18 -21 -2 -24 23 -21 36 3 12 22 35 17 26 -6 -7 -19 18 -18 34 1 16 19
34 19 26 0 -8 -21 22 -20 46 2 17 15 18 15 18 0 0 -20 21 -22 38 -5 10 10 15
10 22 -2 8 -13 13 -13 31 -2 12 8 24 10 28 5 3 -5 86 -8 184 -8 158 0 180 2
191 18 17 22 26 22 26 -2 0 -15 8 -18 43 -18 23 -1 48 4 55 10 10 8 16 7 21
-2 7 -10 12 -10 29 0 14 9 25 10 34 3 7 -6 33 -9 58 -8 25 2 88 3 142 4 74 1
98 5 102 16 3 8 10 14 17 14 6 0 9 -7 6 -15 -9 -21 7 -27 29 -10 25 19 38 19
30 0 -9 -25 33 -18 44 8 l9 22 7 -23 c7 -25 29 -29 38 -7 7 18 26 20 26 2 0
-9 43 -12 180 -14 99 0 183 3 186 8 3 5 10 9 15 9 6 0 7 -5 4 -10 -9 -14 29
-12 43 2 8 8 12 9 12 1 0 -13 358 -15 366 -1 3 4 10 8 15 8 6 0 7 -4 4 -10 -9
-14 29 -12 44 3 11 9 14 9 18 0 6 -15 43 -17 43 -3 0 6 7 10 16 10 8 0 12 -4
9 -10 -9 -14 29 -12 43 2 10 10 14 10 21 0 6 -10 49 -12 181 -10 158 2 173 4
178 20 6 23 28 18 26 -6 -1 -10 6 -16 17 -16 10 0 19 5 19 10 0 6 7 10 16 10
8 0 12 -4 9 -10 -4 -6 5 -10 19 -10 14 0 26 5 26 11 0 8 4 8 13 1 12 -11 439
-9 595 1 29 2 55 0 59 -5 7 -12 452 -8 476 4 11 6 31 5 53 -2 23 -8 39 -9 46
-2 5 5 44 7 96 3 48 -3 119 -6 157 -6 l70 0 3 592 2 593 -32 14 c-38 16 -73
51 -83 85 -13 43 -73 136 -112 172 -21 20 -69 60 -108 88 -121 89 -128 95
-179 140 -28 24 -55 48 -61 52 -52 42 -81 63 -150 110 -44 29 -93 61 -110 70
-16 9 -73 42 -125 73 -75 45 -281 150 -425 216 -109 50 -206 92 -350 150 -93
37 -235 97 -315 132 -80 36 -192 81 -250 102 -58 21 -114 42 -125 47 -11 5
-42 16 -70 24 -27 9 -59 20 -70 25 -11 5 -70 25 -132 45 -139 44 -201 72 -300
132 -89 53 -79 47 -155 111 -72 62 -115 116 -211 267 -41 66 -99 152 -128 190
-84 112 -109 161 -115 224 -6 54 -4 62 41 147 27 49 58 105 70 124 58 95 178
377 200 470 1 8 22 83 44 165 23 83 51 206 62 275 26 165 48 235 110 355 134
258 160 329 173 479 4 38 8 78 11 90 9 40 16 152 27 411 15 358 15 378 -14
454 -25 63 -41 71 -33 15 2 -16 2 -23 -1 -16 -9 19 -24 14 -24 -8 0 -11 -17
-53 -37 -95 -36 -72 -37 -77 -25 -120 17 -63 15 -146 -4 -184 -28 -55 -116
-133 -98 -86 4 8 10 15 15 15 5 0 9 9 9 20 0 13 -7 20 -20 20 -11 0 -20 5 -20
11 0 6 8 9 18 7 14 -4 17 2 17 41 0 30 -5 50 -15 58 -30 23 -7 220 31 264 11
12 22 33 25 46 6 24 20 31 26 12 7 -22 34 3 49 46 9 24 13 42 9 40 -4 -3 -10
2 -14 10 -4 11 2 15 19 15 24 0 25 2 18 43 -12 63 -8 226 7 277 32 117 35 200
15 401 -15 157 -36 277 -95 539 -39 178 -49 227 -56 280 -17 140 -57 241 -153
384 -36 54 -70 106 -76 115 -5 9 -12 18 -15 21 -14 13 -80 98 -80 103 0 9 -63
80 -145 160 -101 99 -211 173 -350 235 -111 48 -260 136 -304 179 -13 13 -32
23 -42 23 -11 0 -19 6 -19 13 0 15 -112 77 -138 77 -9 0 -23 6 -31 14 -9 7
-52 24 -96 36 -44 12 -91 25 -105 29 -14 4 -48 7 -77 6 -30 0 -49 3 -46 9 4 5
-36 6 -103 2 -174 -12 -169 -11 -167 -32 2 -18 -7 -19 -130 -19 -73 0 -174 -5
-225 -11 -64 -7 -91 -7 -89 1 2 5 26 10 53 10 27 0 54 3 60 7 7 4 64 11 128
14 67 4 116 11 116 17 0 6 -3 7 -7 4 -3 -4 -11 -3 -17 2 -16 13 -183 20 -251
11z m729 -38 c12 -20 -15 -31 -84 -36 -41 -3 -91 -8 -110 -11 l-35 -6 28 16
c15 9 27 20 27 25 0 5 10 11 23 13 40 8 146 7 151 -1z m-861 -49 c-13 -2 -23
-9 -23 -15 0 -5 -6 -8 -12 -5 -7 2 -23 0 -36 -4 -15 -6 -21 -5 -17 1 7 12 62
28 90 28 17 -1 16 -1 -2 -5z m505 -8 c14 -14 -10 -14 -39 0 l-34 15 34 -5 c19
-3 37 -7 39 -10z m-95 -2 c-7 -2 -21 -2 -30 0 -10 3 -4 5 12 5 17 0 24 -2 18
-5z m210 0 c-7 -2 -19 -2 -25 0 -7 3 -2 5 12 5 14 0 19 -2 13 -5z m344 -9 c-3
-3 -12 -4 -19 -1 -8 3 -5 6 6 6 11 1 17 -2 13 -5z m148 -34 c3 -5 -1 -10 -9
-10 -9 0 -16 5 -16 10 0 6 4 10 9 10 6 0 13 -4 16 -10z m-1305 -10 c-20 -13
-40 -13 -40 0 0 6 12 10 28 10 21 0 24 -2 12 -10z m-100 -30 c0 -5 -6 -10 -12
-10 -7 0 -29 -18 -49 -40 -26 -29 -36 -35 -32 -20 3 11 14 25 24 31 11 5 19
16 19 24 0 13 14 23 38 24 6 1 12 -3 12 -9z m20 -36 c0 -8 -26 -29 -55 -46
-18 -10 -19 -10 -6 5 7 10 10 17 5 17 -10 0 36 27 49 29 4 1 7 -2 7 -5z m-155
-80 c-9 -9 -18 -14 -21 -11 -9 9 6 27 22 27 13 0 13 -2 -1 -16z m1866 -81 c27
-16 38 -33 22 -33 -5 0 -26 11 -48 25 -46 28 -22 36 26 8z m-2211 -83 c-36
-11 -52 -11 -45 0 3 6 21 10 38 9 31 -1 31 -1 7 -9z m-100 -15 c-7 -8 -18 -15
-24 -15 -7 0 -21 -8 -32 -17 -32 -29 -84 -55 -84 -43 0 6 14 16 30 21 17 6 30
15 30 20 0 8 65 46 84 48 5 1 3 -6 -4 -14z m2580 -25 c0 -5 -2 -10 -4 -10 -3
0 -8 5 -11 10 -3 6 -1 10 4 10 6 0 11 -4 11 -10z m-2745 -76 c-9 -9 -19 -13
-23 -10 -3 4 0 11 8 16 24 15 33 11 15 -6z m-78 -44 c-14 -11 -35 -23 -46 -28
-31 -11 -247 -218 -273 -261 -12 -20 -42 -63 -66 -96 -49 -66 -85 -136 -108
-205 -8 -25 -23 -61 -34 -80 -10 -19 -21 -53 -25 -75 -4 -22 -14 -56 -23 -75
-23 -53 -52 -206 -52 -282 0 -38 -4 -68 -9 -68 -5 0 -7 55 -4 128 4 109 8 135
30 182 14 30 30 84 36 120 6 36 18 76 28 90 9 14 22 49 29 78 7 28 15 52 19
52 5 0 16 19 27 42 10 23 28 52 39 64 36 39 54 70 69 117 3 9 12 17 20 17 8 0
16 10 18 23 2 13 11 23 24 25 12 2 26 14 32 28 7 13 23 29 37 36 14 6 28 21
31 34 4 13 16 24 32 27 16 4 34 18 44 36 9 17 24 31 33 31 8 0 15 5 15 10 0
10 74 49 94 50 5 0 -3 -9 -17 -20z m788 12 c-6 -4 -44 -18 -85 -31 -226 -70
-286 -96 -329 -140 -22 -23 -88 -75 -163 -130 -10 -8 -21 -11 -24 -8 -3 3 28
32 69 65 41 33 90 75 109 93 42 42 180 114 202 106 9 -4 35 1 58 10 92 34 186
55 163 35z m2081 -19 c70 -38 167 -113 146 -113 -5 0 -30 16 -55 35 -24 19
-64 42 -86 51 -23 9 -46 25 -52 35 -13 24 -11 24 47 -8z m-2506 -67 c0 -3 -34
-30 -75 -61 -41 -31 -75 -62 -75 -68 0 -5 -3 -8 -6 -5 -3 3 -17 -5 -32 -19
-51 -48 -122 -105 -122 -99 0 9 -75 -70 -108 -112 -13 -18 -27 -31 -29 -28 -7
6 16 45 50 88 16 20 26 41 23 47 -4 5 3 16 15 25 12 8 19 21 16 29 -3 8 6 27
19 42 13 15 24 31 24 34 0 10 61 44 66 38 3 -3 -8 -13 -25 -23 -27 -16 -47
-42 -39 -49 4 -4 56 24 160 86 127 77 138 83 138 75z m275 -61 c-27 -23 -55
-33 -55 -20 0 8 63 45 75 45 6 -1 -3 -12 -20 -25z m660 -35 c-11 -5 -37 -9
-57 -9 -21 -1 -72 -13 -115 -27 -75 -24 -183 -43 -183 -31 0 3 34 13 75 22 42
10 97 25 123 36 47 18 200 27 157 9z m-774 -55 c-42 -19 -47 -19 -31 0 7 8 24
15 39 15 25 -1 25 -1 -8 -15z m-587 -37 c-10 -13 -26 -29 -34 -36 -13 -11 -11
-11 10 -1 14 6 35 21 48 33 13 11 22 16 20 9 -4 -15 -162 -182 -167 -177 -2 2
2 10 9 19 7 9 11 17 9 20 -5 5 -214 -206 -252 -255 l-28 -35 27 55 c66 136
243 349 311 374 59 21 69 20 47 -6z m1285 -4 c2 -2 -25 -3 -60 -3 -49 1 -57 3
-34 9 27 6 84 3 94 -6z m-648 -64 c-35 -17 -66 -29 -68 -26 -6 6 98 56 116 56
9 0 -13 -14 -48 -30z m-112 -9 c-13 -11 -46 -32 -74 -47 -27 -15 -60 -36 -72
-46 -21 -20 -21 -20 -32 1 -8 14 -8 21 -1 21 5 0 10 7 10 15 0 8 5 15 10 15 7
0 7 -6 0 -19 -15 -29 -12 -36 8 -19 26 23 166 107 171 103 2 -3 -7 -13 -20
-24z m278 -45 c-20 -15 -134 -35 -222 -37 -58 -2 -105 -21 -105 -41 0 -11
-100 -128 -145 -170 -21 -19 -25 -27 -14 -28 9 0 24 9 34 20 10 11 23 20 28
20 6 0 18 7 27 15 10 9 30 18 45 21 15 3 47 18 71 35 24 16 44 26 44 20 0 -14
-58 -60 -106 -83 -46 -21 -77 -58 -68 -81 3 -9 -3 -17 -18 -20 -13 -4 -29 -15
-36 -27 -10 -17 -10 -20 5 -20 10 0 42 11 72 25 62 29 76 27 32 -6 -37 -27
-64 -66 -56 -79 3 -6 18 -1 34 11 35 26 67 22 63 -8 -4 -30 15 -38 30 -13 7
11 23 20 35 20 18 0 25 -9 34 -42 14 -54 18 -60 32 -51 7 4 22 6 35 4 19 -2
22 2 22 32 0 30 3 34 23 30 14 -3 29 2 36 11 8 9 18 16 24 16 7 0 7 -4 -1 -12
-15 -15 -16 -54 -2 -63 6 -3 10 -17 10 -30 0 -13 5 -27 11 -30 5 -4 9 -17 8
-28 -2 -36 0 -40 16 -27 19 16 19 79 1 116 -8 15 -13 31 -10 36 9 14 21 0 27
-32 5 -24 12 -30 31 -30 16 0 27 -7 31 -20 3 -11 11 -20 16 -20 5 0 9 -11 9
-24 0 -13 7 -27 16 -30 14 -5 16 0 12 42 -3 27 -12 63 -21 82 -21 40 -23 110
-4 110 14 0 100 -59 105 -72 2 -5 10 -8 18 -8 11 0 12 -4 3 -17 -10 -18 -4
-43 20 -83 15 -25 51 -149 51 -176 0 -37 23 -25 32 17 5 19 5 68 2 110 -5 71
-4 78 16 92 29 20 46 13 54 -25 5 -25 10 -29 28 -25 13 3 39 9 59 12 36 7 37
6 44 -32 12 -68 32 -103 57 -103 13 0 29 -4 37 -9 7 -5 29 -4 50 1 20 5 49 12
64 15 21 4 26 9 22 24 -5 14 -2 17 8 13 8 -3 18 -1 21 4 7 11 46 4 46 -8 0 -6
44 -30 54 -30 2 0 6 9 9 20 7 28 19 25 45 -14 14 -20 29 -33 37 -30 8 3 20 -4
27 -16 16 -26 79 -55 88 -40 4 6 20 -7 39 -30 17 -22 37 -40 42 -40 6 0 18 -7
26 -16 9 -8 24 -13 34 -11 10 3 23 -1 30 -9 6 -8 20 -14 30 -14 11 0 19 -6 19
-12 0 -7 5 -5 11 5 6 9 14 15 20 12 13 -8 81 17 96 35 7 8 13 26 13 39 0 17 4
22 16 17 11 -4 18 1 21 14 3 12 14 20 27 20 31 0 35 7 25 42 -8 30 -8 30 26
26 31 -4 35 -1 35 19 0 25 19 30 51 13 25 -14 24 -34 -2 -27 -17 4 -18 3 -8
-9 9 -11 15 -12 26 -3 11 9 17 8 27 -6 9 -13 15 -15 20 -7 4 7 18 12 31 12 20
0 25 -7 32 -37 4 -21 6 -43 5 -50 -2 -7 7 -17 19 -23 15 -9 19 -18 15 -34 -4
-17 2 -32 24 -55 25 -25 30 -39 30 -79 0 -29 7 -57 17 -72 20 -28 20 -134 0
-158 -6 -7 -11 -47 -12 -88 -1 -72 0 -74 15 -54 l16 21 12 -26 c7 -14 12 -32
12 -40 0 -8 5 -15 10 -15 6 0 10 23 10 50 l0 50 40 0 40 0 0 -65 c0 -58 2 -65
20 -65 24 0 26 -16 3 -28 -15 -9 -15 -14 -3 -53 l13 -44 13 40 14 40 -2 -50
c-2 -57 9 -115 23 -115 5 0 9 -18 9 -41 0 -22 -4 -38 -8 -35 -16 9 1 -59 17
-71 14 -11 14 -12 -1 -13 -21 0 -24 -16 -4 -27 16 -9 31 -53 19 -53 -5 0 -13
-20 -19 -45 -8 -36 -8 -48 3 -56 7 -7 13 -21 13 -34 0 -14 10 -26 28 -35 25
-12 26 -13 7 -20 -13 -5 -23 -3 -28 6 -4 8 -15 14 -22 14 -8 0 -15 4 -15 10 0
5 -7 7 -16 3 -8 -3 -13 -11 -10 -18 3 -9 -4 -11 -29 -5 -25 6 -38 4 -46 -6 -6
-7 -37 -16 -70 -20 -37 -4 -63 -12 -68 -22 -6 -10 -10 -11 -15 -3 -10 15 -42
14 -69 -3 -12 -8 -44 -15 -72 -16 -75 -1 -95 -3 -95 -12 0 -12 -28 -9 -32 3
-3 8 -50 13 -146 14 -127 2 -143 0 -158 -17 -16 -16 -19 -17 -40 -3 -45 29
-94 14 -109 -35 -3 -11 -12 -20 -19 -20 -7 0 -19 -18 -26 -40 -7 -23 -20 -40
-28 -40 -8 0 -20 -8 -27 -17 -8 -11 -29 -18 -57 -20 -23 -1 -65 -4 -93 -5 -27
-2 -53 -7 -57 -13 -4 -5 -35 -9 -70 -9 -35 0 -65 -2 -68 -5 -13 -16 -53 -31
-78 -31 -16 0 -37 -9 -46 -19 -9 -10 -29 -21 -44 -24 -15 -2 -35 -8 -45 -12
-15 -6 -18 -4 -15 10 2 13 -5 21 -22 25 -18 4 -26 14 -28 35 -3 21 -6 25 -12
15 -12 -20 -23 -6 -24 32 -1 26 -6 34 -22 36 -16 2 -20 8 -17 21 3 12 -4 25
-21 37 -15 11 -36 27 -48 37 -25 21 -19 20 -168 27 -14 1 -35 11 -47 23 -13
11 -23 18 -23 14 0 -4 -12 -2 -26 4 -21 7 -31 6 -45 -7 -14 -12 -44 -16 -141
-18 -68 -1 -129 -5 -135 -9 -7 -5 -34 -1 -61 7 -30 8 -54 11 -63 5 -21 -13
-39 -11 -33 4 3 9 -8 13 -36 14 l-41 2 27 -22 28 -22 -29 -6 c-17 -4 -41 -7
-54 -8 -24 -1 -24 0 -5 13 10 8 16 18 11 22 -4 4 -13 2 -19 -4 -15 -15 -42
-16 -33 -2 3 6 1 10 -5 10 -6 0 -10 -8 -8 -17 2 -12 -12 -25 -42 -41 -25 -13
-56 -34 -70 -47 -14 -12 -34 -26 -45 -29 -36 -12 -75 -54 -75 -81 0 -15 -6
-25 -14 -25 -23 0 -29 -20 -13 -38 15 -18 13 -37 -9 -62 -7 -9 -13 -24 -13
-35 0 -11 -3 -32 -7 -47 -5 -24 0 -34 40 -73 26 -24 57 -47 71 -51 13 -3 29
-12 36 -20 6 -8 20 -14 30 -14 10 0 21 -5 24 -11 4 -6 19 -7 36 -4 19 4 29 3
29 -5 0 -7 12 -10 28 -9 35 4 78 -28 87 -64 4 -14 13 -31 21 -38 8 -6 14 -26
14 -43 0 -70 112 -129 333 -177 32 -7 60 -16 63 -21 3 -4 12 -8 21 -8 8 0 27
-9 42 -19 22 -16 35 -18 64 -12 51 12 116 45 157 81 63 55 128 80 190 75 62
-5 70 -5 105 -2 19 1 25 8 25 25 0 15 7 26 18 29 27 7 28 117 2 184 -11 27
-20 62 -20 77 -1 15 -9 61 -19 103 l-18 75 49 0 c42 0 49 -3 45 -17 -4 -14 6
-22 41 -33 25 -9 54 -16 64 -16 10 0 18 -7 18 -15 0 -12 16 -14 93 -11 55 2
97 -1 106 -8 10 -8 17 -5 27 9 10 13 14 14 14 5 0 -11 3 -11 12 -2 7 7 16 12
20 12 11 0 -1 -120 -15 -145 -10 -19 -19 -57 -34 -145 -3 -19 -6 -121 -6 -226
0 -165 3 -203 23 -285 31 -129 61 -232 71 -244 4 -6 10 -35 13 -65 2 -30 8
-66 14 -80 5 -14 7 -31 4 -39 -4 -10 -8 -8 -13 7 -5 12 -13 22 -19 22 -14 0
-12 -11 5 -34 13 -17 11 -22 -32 -52 -25 -18 -52 -30 -59 -27 -8 3 -17 -3 -20
-12 -5 -13 -14 -15 -36 -11 -18 3 -41 0 -57 -8 -41 -23 -183 -56 -208 -50 -14
4 -23 2 -23 -5 0 -19 -15 -12 -54 24 -66 60 -133 87 -228 89 -78 3 -84 4 -95
28 -11 21 -10 32 2 59 26 63 87 131 129 145 21 7 46 20 55 28 14 15 14 18 -2
33 -17 17 -19 17 -48 1 -16 -10 -36 -15 -44 -12 -18 7 -55 -16 -105 -63 -19
-18 -38 -33 -43 -33 -9 0 -64 -49 -114 -100 -34 -35 -93 -139 -93 -164 0 -7
-9 -23 -20 -36 -11 -13 -21 -30 -21 -39 -4 -43 -6 -69 -10 -101 -3 -28 0 -35
14 -38 24 -5 58 27 115 108 26 36 52 71 59 78 7 7 24 33 38 56 21 36 29 42 51
38 15 -3 31 -17 42 -37 19 -37 101 -134 151 -179 18 -17 48 -45 65 -62 25 -24
35 -29 48 -20 12 7 21 6 32 -3 25 -21 19 -31 -19 -31 -19 0 -35 -4 -35 -9 0
-5 -22 -18 -48 -29 -27 -12 -59 -35 -71 -51 -13 -17 -27 -28 -32 -25 -5 2 -20
-3 -34 -12 -21 -14 -31 -15 -51 -5 -31 14 -44 14 -24 1 13 -9 13 -11 0 -19 -9
-7 -19 -6 -27 1 -10 8 -19 6 -33 -7 -11 -10 -20 -13 -20 -7 0 6 5 14 10 17 6
4 7 11 4 17 -4 6 -10 6 -17 -1 -19 -19 -47 -13 -47 11 0 12 -3 18 -6 15 -4 -3
-15 -2 -25 3 -23 13 -66 -6 -74 -32 -8 -23 -24 -23 -31 0 -16 49 -27 72 -33
66 -3 -3 -4 -6 -1 -7 2 -1 -3 -15 -12 -32 -9 -16 -22 -56 -29 -88 -13 -61 -24
-76 -42 -58 -19 19 -37 12 -37 -14 0 -14 -7 -42 -16 -63 -10 -25 -14 -53 -10
-87 3 -27 6 -79 7 -115 1 -36 6 -71 11 -77 7 -8 6 -23 -1 -43 -5 -17 -8 -36
-5 -44 3 -7 -2 -19 -11 -26 -20 -16 -20 -41 0 -34 19 8 21 -36 3 -54 -19 -19
-28 -14 -28 16 0 15 -9 38 -20 52 -11 14 -20 33 -20 42 0 14 6 16 30 12 36 -8
42 12 8 26 -13 5 -17 9 -10 9 24 2 11 21 -23 35 -19 8 -35 18 -35 21 0 3 5 3
10 0 22 -13 8 12 -25 44 -18 18 -39 48 -46 65 -7 17 -25 42 -41 55 -17 15 -28
34 -28 50 0 31 -10 46 -30 46 -10 0 -16 12 -18 33 -3 26 -7 32 -28 32 -17 0
-24 -6 -24 -19 0 -10 -7 -21 -15 -25 -9 -3 -12 -12 -9 -21 6 -14 0 -16 -37
-13 -36 3 -44 7 -49 27 -3 14 -11 26 -17 28 -16 6 -26 -33 -14 -56 16 -30 14
-71 -4 -71 -8 0 -15 5 -15 12 0 8 -3 9 -10 2 -7 -7 -6 -24 5 -53 18 -53 20
-86 3 -56 -6 11 -20 26 -31 34 -11 8 -17 21 -14 32 3 11 1 21 -3 24 -5 3 -4
19 1 35 7 20 7 50 0 96 -5 37 -8 71 -5 76 3 4 -2 11 -11 14 -12 5 -15 14 -10
31 4 19 1 26 -15 30 -21 5 -30 53 -10 53 6 0 10 -5 10 -12 0 -6 3 -9 6 -5 3 3
-3 19 -15 35 -28 40 -28 66 0 59 20 -5 21 -3 15 34 -6 36 -31 79 -47 79 -8 0
1 -49 11 -55 5 -3 6 -14 3 -25 -5 -19 -7 -18 -36 10 -25 24 -31 38 -29 65 2
29 -1 35 -18 35 -27 0 -26 28 1 38 21 8 20 9 -6 26 -22 15 -26 23 -21 47 3 15
1 31 -4 34 -6 3 -10 1 -10 -5 0 -8 -6 -8 -21 1 -13 7 -19 17 -16 29 3 10 -1
21 -9 24 -9 3 -11 16 -7 39 3 21 -1 45 -10 63 -8 16 -18 49 -22 74 -4 25 -12
54 -18 65 -12 23 -40 125 -66 246 -40 175 -48 413 -22 614 6 50 16 243 21 430
7 251 13 360 26 415 9 41 18 86 20 100 2 14 20 72 39 130 45 135 50 164 35
200 -11 27 -10 33 6 51 16 17 16 22 4 29 -8 6 -21 10 -27 10 -17 0 -16 20 3
65 24 58 16 73 -23 41 -37 -31 -42 -23 -14 26 25 45 34 100 20 131 -9 20 -7
36 11 88 13 34 24 85 25 111 3 44 1 47 -14 36 -9 -7 -19 -17 -23 -23 -4 -5 -9
-7 -13 -4 -8 8 34 59 49 59 23 0 56 56 51 89 -2 17 1 31 6 31 12 0 12 43 0 56
-6 5 3 30 24 64 19 30 45 75 59 100 13 25 40 61 60 80 20 19 36 40 36 46 0 7
7 14 14 17 10 4 13 1 9 -9 -9 -24 8 -16 43 20 19 19 51 47 71 63 21 15 54 41
74 58 19 18 62 45 94 61 32 16 75 45 96 64 21 19 46 42 56 51 10 9 23 23 28
32 6 9 19 18 30 20 11 2 34 9 50 16 51 20 54 20 57 9 3 -8 26 -7 79 4 40 9 85
16 99 17 23 0 24 -1 7 -13z m82 -11 c-3 -2 -23 -7 -45 -10 -27 -3 -34 -2 -24
5 15 10 78 14 69 5z m-1211 -67 c-2 -6 -10 -14 -16 -16 -7 -2 -10 2 -6 12 7
18 28 22 22 4z m662 -6 c-8 -3 -24 -12 -35 -22 -11 -10 -33 -26 -50 -36 l-30
-18 20 24 c39 47 68 67 89 62 15 -4 16 -7 6 -10z m-701 -82 c-23 -40 -39 -51
-39 -26 0 12 46 66 57 66 2 0 -6 -18 -18 -40z m225 -105 c-37 -41 -69 -75 -71
-75 -6 0 56 79 91 118 17 17 34 32 39 32 4 0 -22 -34 -59 -75z m-284 -20 c-35
-61 -57 -82 -45 -44 11 35 69 122 73 110 2 -6 -11 -35 -28 -66z m179 -42 c-19
-24 -42 -42 -53 -43 -6 0 3 14 19 30 31 32 57 42 34 13z m1579 -18 c11 -24 7
-35 -12 -35 -13 0 -38 49 -30 61 8 13 31 0 42 -26z m-27 -102 c-10 -17 -10
-16 -11 3 0 23 13 41 18 25 2 -6 -1 -18 -7 -28z m-1593 -93 c-23 -31 -28 -35
-28 -22 0 9 38 52 46 52 2 0 -5 -13 -18 -30z m1560 18 c-6 -18 -28 -21 -28 -4
0 9 7 16 16 16 9 0 14 -5 12 -12z m-1518 -103 c-41 -41 -76 -75 -77 -75 -2 0
-3 7 -3 15 0 12 135 135 149 135 3 0 -28 -34 -69 -75z m1813 29 c11 -11 -3
-24 -18 -18 -8 4 -12 10 -9 15 6 11 18 12 27 3z m767 -85 c0 -5 -4 -9 -10 -9
-5 0 -10 7 -10 16 0 8 5 12 10 9 6 -3 10 -10 10 -16z m-2550 -77 c0 -11 -22
-32 -32 -32 -5 0 -4 9 2 20 11 20 30 28 30 12z m-363 -84 c-2 -13 -4 -5 -4 17
-1 22 1 32 4 23 2 -10 2 -28 0 -40z m3623 21 c0 -5 -4 -9 -10 -9 -5 0 -10 7
-10 16 0 8 5 12 10 9 6 -3 10 -10 10 -16z m-850 -13 c0 -3 -4 -8 -10 -11 -5
-3 -10 -1 -10 4 0 6 5 11 10 11 6 0 10 -2 10 -4z m1000 -11 c0 -9 6 -18 13
-21 8 -3 24 -19 36 -35 21 -28 21 -32 6 -43 -26 -19 -17 -80 13 -84 37 -6 27
-32 -13 -32 -29 0 -35 4 -35 21 0 15 -4 19 -19 14 -16 -5 -18 -2 -14 14 3 13
10 18 20 14 13 -5 15 -1 10 18 -3 13 -9 41 -12 62 -4 20 -11 40 -16 43 -12 7
-11 44 1 44 6 0 10 -7 10 -15z m-163 -50 c36 -32 17 -32 -22 0 -16 13 -25 24
-18 25 7 0 25 -11 40 -25z m67 -40 c12 -18 13 -25 4 -25 -7 0 -18 11 -25 25
-15 32 0 32 21 0z m-99 -63 c-3 -4 -10 0 -15 8 -6 9 -5 17 3 22 13 8 24 -19
12 -30z m252 -4 c-3 -7 -5 -2 -5 12 0 14 2 19 5 13 2 -7 2 -19 0 -25z m-462 5
c-11 -3 -23 -10 -27 -17 -5 -7 -8 -7 -8 0 0 16 11 24 34 23 20 -1 20 -1 1 -6z
m108 -52 c15 -30 15 -30 -17 -34 -17 -3 -5 -3 27 -1 46 3 61 0 76 -15 15 -15
28 -18 60 -14 28 4 41 2 41 -6 0 -8 15 -12 45 -10 31 2 52 -2 65 -14 22 -19
27 -53 8 -59 -8 -3 -5 -12 10 -28 12 -13 25 -33 28 -44 4 -12 11 -24 17 -28
14 -8 18 -110 5 -125 -19 -24 1 -79 48 -129 27 -29 43 -56 41 -65 -3 -11 4
-21 19 -28 16 -7 24 -19 24 -35 0 -14 5 -37 11 -52 5 -16 19 -80 30 -143 16
-92 21 -176 24 -401 2 -157 9 -382 15 -500 15 -277 15 -284 8 -356 -15 -145
-27 -194 -49 -194 -6 0 -7 5 -4 10 3 6 1 10 -5 10 -6 0 -10 16 -9 38 0 20 -2
60 -5 87 -9 82 -10 131 -3 142 4 6 0 16 -8 23 -11 9 -12 17 -5 31 7 13 7 25
-2 39 -11 17 -10 22 2 30 12 8 12 10 -2 15 -12 5 -15 19 -13 70 3 56 1 65 -16
70 -21 7 -22 10 -9 40 7 16 9 17 9 3 1 -9 5 -19 11 -23 13 -8 5 64 -9 78 -14
14 -14 44 0 53 8 5 8 8 0 13 -15 10 -20 169 -5 175 8 3 10 28 6 75 -3 50 -1
71 7 71 9 0 9 5 0 22 -17 32 -23 72 -17 113 2 13 -2 20 -12 19 -21 -1 -23 34
-4 53 17 18 18 28 1 45 -6 7 -13 34 -15 61 -2 26 -12 63 -24 83 -15 25 -19 45
-15 69 3 19 1 37 -4 40 -16 11 -10 23 16 29 14 4 23 11 20 16 -4 6 -18 7 -32
3 l-27 -6 22 23 c26 28 27 39 7 46 -20 8 -9 24 16 24 20 0 26 15 9 25 -5 3
-10 14 -10 23 -1 22 -55 82 -74 82 -8 0 -16 -10 -18 -22 -5 -38 -32 -33 -45 9
-6 21 -8 40 -4 43 5 3 5 14 0 25 -4 11 -8 16 -8 10 -1 -5 -8 1 -17 13 -8 12
-12 27 -9 32 4 6 -5 23 -19 37 -14 14 -26 37 -26 50 0 31 -27 41 -45 17 -13
-18 -14 -18 -15 -1 0 24 -20 22 -20 -3 0 -15 7 -20 29 -20 30 0 46 -26 34 -56
-8 -21 -18 -17 -46 16 -14 17 -30 30 -35 30 -5 0 -20 13 -34 28 l-24 28 20 16
21 17 -22 1 c-12 0 -23 -6 -26 -12 -2 -8 -8 -9 -13 -4 -5 5 -4 11 4 13 20 7
14 31 -10 39 -16 5 -27 1 -40 -16 l-18 -22 0 26 c0 14 5 26 10 26 6 0 10 7 10
15 0 10 -10 15 -26 15 -27 0 -27 0 -20 62 3 34 12 65 19 70 24 15 46 8 60 -21z
m107 9 c0 -5 3 -16 6 -24 5 -12 2 -15 -12 -10 -19 7 -44 32 -44 45 0 3 11 4
25 1 14 -2 25 -8 25 -12z m130 -15 c0 -8 -4 -15 -9 -15 -13 0 -22 16 -14 24
11 11 23 6 23 -9z m80 -20 c15 -18 5 -35 -20 -35 -22 0 -34 15 -26 35 7 19 30
19 46 0z m-3813 -57 c-3 -8 -6 -5 -6 6 -1 11 2 17 5 13 3 -3 4 -12 1 -19z
m3401 -80 c19 -19 14 -28 -13 -28 -18 0 -25 5 -25 20 0 22 20 26 38 8z m442 2
c0 -5 -4 -10 -10 -10 -5 0 -10 5 -10 10 0 6 5 10 10 10 6 0 10 -4 10 -10z
m-3833 -42 c-3 -7 -5 -2 -5 12 0 14 2 19 5 13 2 -7 2 -19 0 -25z m3433 -8 c0
-5 -18 -10 -40 -10 -22 0 -40 5 -40 10 0 6 18 10 40 10 22 0 40 -4 40 -10z
m-3443 -77 c-3 -10 -5 -4 -5 12 0 17 2 24 5 18 2 -7 2 -21 0 -30z m10 -90 c-3
-10 -5 -4 -5 12 0 17 2 24 5 18 2 -7 2 -21 0 -30z m3568 15 c27 -12 33 -28 10
-28 -20 0 -65 22 -65 32 0 11 25 10 55 -4z m-3274 -91 c-10 -9 -11 -8 -5 6 3
10 9 15 12 12 3 -3 0 -11 -7 -18z m3269 19 c0 -11 -19 -15 -25 -6 -3 5 1 10 9
10 9 0 16 -2 16 -4z m-3525 -184 c-13 -13 -20 15 -22 86 l-2 77 14 -79 c9 -43
13 -81 10 -84z m3797 93 c-2 -15 0 -25 7 -25 17 0 13 -37 -4 -44 -9 -3 -15 0
-15 9 0 8 -5 15 -10 15 -20 0 -22 31 -5 50 24 27 33 25 27 -5z m-3778 -147 c4
-17 2 -28 -4 -28 -5 0 -10 14 -10 32 0 36 4 35 14 -4z m3796 -78 c-20 -13 -33
-13 -25 0 3 6 14 10 23 10 15 0 15 -2 2 -10z m369 -142 c10 -3 3 -12 -21 -26
-48 -30 -52 -28 -26 12 13 19 25 31 28 27 3 -5 11 -10 19 -13z m117 -423 c-20
-66 -20 -93 -1 -138 18 -44 21 -228 3 -260 -6 -12 -15 -64 -19 -116 -6 -67
-13 -99 -25 -110 -15 -15 -16 -14 -11 4 12 42 26 141 26 175 -1 19 7 72 17
117 17 78 14 115 -6 83 -5 -9 -6 2 -3 28 3 24 2 42 -4 42 -18 0 -6 144 25 310
6 31 7 29 10 -23 2 -33 -4 -82 -12 -112z m-2436 -85 c0 -5 -4 -10 -10 -10 -5
0 -10 5 -10 10 0 6 5 10 10 10 6 0 10 -4 10 -10z m-670 -130 c-22 -31 -40 -39
-40 -18 0 17 31 48 47 48 11 0 9 -8 -7 -30z m215 -6 c50 -43 60 -69 39 -102
-17 -26 -70 -52 -108 -52 l-24 0 21 43 c12 25 21 63 21 94 1 29 2 53 4 53 2 0
23 -16 47 -36z m1424 -87 c15 -38 16 -37 -28 -37 -51 0 -73 22 -69 68 2 29 11
41 38 60 l35 23 7 -43 c3 -24 11 -56 17 -71z m404 81 l21 -28 -25 -26 c-22
-25 -87 -60 -95 -52 -1 2 9 34 24 71 29 74 41 80 75 35z m-2205 -89 c22 -54
89 -87 185 -90 28 -2 46 -7 44 -13 -7 -20 -61 -25 -141 -11 -45 7 -103 16
-131 20 -61 8 -119 39 -134 72 -10 23 -10 24 11 18 13 -4 42 -18 66 -32 23
-13 50 -23 60 -21 12 3 8 9 -18 22 -36 20 -70 52 -70 68 0 5 4 7 9 4 5 -3 14
1 21 9 7 8 18 15 25 15 6 0 20 9 31 21 l19 21 6 -38 c3 -22 11 -51 17 -65z
m267 42 c-8 -26 -32 -51 -50 -51 -7 0 -1 13 16 31 16 17 29 36 29 42 0 6 3 8
6 4 3 -3 3 -15 -1 -26z m1635 14 c7 -9 10 -18 7 -22 -8 -7 -37 15 -37 28 0 14
16 11 30 -6z m-1782 -50 l12 -25 -30 15 c-34 17 -39 35 -12 35 11 0 24 -11 30
-25z m492 -61 c24 -55 25 -64 5 -64 -10 0 -15 10 -15 29 0 16 -4 41 -10 55
-17 45 0 28 20 -20z m2630 6 c0 -5 -4 -10 -10 -10 -5 0 -10 5 -10 10 0 6 5 10
10 10 6 0 10 -4 10 -10z m-3303 -69 c12 -15 24 -18 49 -14 28 5 34 2 34 -12 0
-13 6 -16 27 -12 28 5 73 -10 73 -25 0 -15 -29 -9 -38 8 -11 20 -32 10 -32
-14 -1 -16 -1 -16 -11 1 -5 9 -19 17 -29 17 -11 0 -20 4 -20 9 0 6 -9 9 -20 8
-20 -1 -20 -2 2 -19 13 -10 19 -18 14 -18 -14 0 -93 54 -105 73 -10 14 -8 17
14 17 14 0 33 -9 42 -19z m3269 5 c22 -23 17 -43 -30 -130 -43 -80 -96 -213
-96 -242 0 -8 -8 -31 -17 -52 l-17 -37 -6 105 c-7 129 1 195 25 218 17 16 17
16 12 -3 -2 -11 -8 -29 -13 -40 -7 -18 -6 -19 9 -6 10 7 38 56 63 107 26 52
49 94 51 94 2 0 11 -6 19 -14z m-2929 -2 c-3 -3 -12 -4 -19 -1 -8 3 -5 6 6 6
11 1 17 -2 13 -5z m301 -29 c-3 -12 -29 -8 -43 7 -7 6 -1 8 18 6 15 -2 26 -7
25 -13z m-423 -15 c-3 -5 -12 -7 -20 -3 -21 7 -19 13 6 13 11 0 18 -4 14 -10z
m3044 -323 c-17 -83 -21 -64 -7 34 8 52 14 73 16 54 2 -16 -2 -56 -9 -88z
m-704 42 c4 -6 -2 -13 -14 -16 -15 -4 -21 -13 -21 -35 0 -17 4 -27 10 -23 6 3
10 13 10 21 0 21 18 17 31 -7 8 -16 8 -28 0 -45 -6 -15 -7 -25 -1 -29 14 -9
12 -65 -1 -65 -6 0 -9 7 -5 15 4 10 -1 15 -14 15 -21 0 -27 -15 -10 -25 12 -7
2 -156 -10 -165 -4 -3 -7 -25 -6 -50 1 -33 -6 -54 -24 -80 -14 -19 -24 -41
-22 -48 2 -6 -10 -23 -25 -37 -15 -13 -22 -25 -16 -25 9 0 10 -7 3 -25 -5 -14
-7 -32 -4 -40 4 -10 0 -15 -12 -15 -21 0 -64 -67 -64 -99 0 -11 -5 -23 -11
-26 -6 -4 -8 -13 -5 -21 3 -8 -6 -26 -19 -40 -14 -15 -25 -39 -25 -53 -1 -26
-39 -107 -40 -83 0 6 -4 12 -10 12 -5 0 -9 -3 -7 -8 3 -11 -39 -62 -52 -62 -6
0 -11 -4 -11 -10 0 -12 -29 -28 -63 -34 -19 -3 -30 2 -41 19 -9 13 -25 26 -36
30 -11 3 -20 13 -20 21 0 8 -4 14 -8 14 -5 0 -17 18 -27 40 -10 22 -24 45 -32
51 -7 6 -13 21 -13 33 0 12 -9 32 -21 44 -11 12 -18 26 -15 31 7 11 -42 101
-63 117 -8 6 -16 17 -17 25 -20 91 -26 117 -33 134 -5 11 -14 39 -21 63 -7 23
-16 42 -20 42 -10 0 -39 73 -48 121 -10 52 -3 169 9 169 5 0 18 9 29 20 27 27
66 35 98 20 15 -7 34 -16 42 -19 22 -11 119 -4 135 9 14 12 65 3 65 -11 0 -5
5 -9 10 -9 6 0 10 6 10 14 0 12 7 12 36 4 20 -5 38 -7 42 -4 3 3 -3 6 -12 6
-10 0 -16 6 -13 13 2 8 22 12 55 11 29 -1 52 3 52 7 0 5 12 14 27 20 21 8 30
6 48 -11 27 -25 36 -25 58 0 20 24 72 27 81 5 11 -28 26 -15 26 23 0 38 14 62
36 62 7 0 16 -5 19 -11z m651 -225 c-4 -9 -9 -15 -11 -12 -3 3 -3 13 1 22 4 9
9 15 11 12 3 -3 3 -13 -1 -22z m-70 -39 c-19 -39 -41 -48 -30 -12 7 25 35 59
42 52 3 -2 -3 -20 -12 -40z m-1636 -302 c0 -20 -3 -24 -11 -16 -7 7 -9 19 -6
27 10 24 17 19 17 -11z m-2080 -395 c1 -2 3 -21 6 -43 4 -22 10 -45 15 -52 7
-7 5 -13 -3 -16 -8 -4 -7 -6 4 -6 13 -1 17 -9 16 -37 -1 -20 3 -39 9 -42 26
-18 20 -92 -8 -92 -6 0 -7 4 -4 10 3 5 0 7 -9 4 -11 -4 -17 3 -21 23 -3 15
-10 44 -15 64 -12 46 -12 52 0 44 17 -10 11 17 -6 30 -16 11 -36 99 -26 110 5
5 42 7 42 3z m1518 -158 c7 -25 20 -57 28 -72 8 -14 14 -32 14 -40 1 -37 89
-67 195 -64 57 1 74 5 92 23 12 12 19 23 17 26 -3 2 -7 26 -10 53 l-6 49 31
-34 c28 -31 76 -111 69 -115 -66 -36 -187 -76 -231 -76 -43 1 -109 15 -206 45
-61 19 -119 12 -264 -31 -56 -17 -91 -22 -123 -17 -40 5 -44 8 -39 31 2 13 5
25 7 27 18 13 143 75 153 75 7 0 15 7 19 15 4 11 13 14 31 9 15 -4 25 -2 25 4
0 6 10 14 23 18 35 10 50 26 36 35 -16 9 28 59 53 59 27 0 48 11 42 22 -4 6 2
8 12 6 13 -2 23 -19 32 -48z m-1431 -160 c-3 -11 3 -29 14 -41 22 -25 21 -22
13 -43 -7 -18 -24 -22 -24 -5 0 6 -11 20 -25 31 -27 21 -32 47 -13 66 19 19
41 15 35 -8z m19 -267 c36 -74 64 -137 61 -140 -12 -11 -27 10 -33 48 -4 23
-14 44 -25 49 -10 6 -21 27 -25 48 -4 20 -22 56 -40 79 -29 35 -34 49 -33 90
l1 48 14 -43 c7 -24 43 -104 80 -179z m24 121 c0 -8 -4 -14 -10 -14 -5 0 -10
9 -10 21 0 11 5 17 10 14 6 -3 10 -13 10 -21z m1037 -60 c24 -9 43 -21 43 -25
0 -5 15 -9 33 -9 17 -1 43 -10 57 -21 23 -19 23 -22 7 -34 -21 -15 -22 -25 -2
-25 8 0 15 -5 15 -11 0 -6 -9 -8 -20 -4 -11 4 -20 2 -20 -4 0 -6 5 -11 10 -11
6 0 10 -7 10 -15 0 -13 -19 -19 -57 -18 -17 1 -17 -14 0 -24 7 -4 19 -22 25
-38 7 -17 28 -39 47 -49 19 -11 32 -22 30 -27 -3 -4 9 -10 27 -14 18 -4 40
-13 48 -20 18 -15 132 -25 330 -29 150 -3 223 -13 275 -40 17 -9 38 -16 48
-16 10 0 27 -5 37 -10 14 -8 26 -7 41 2 18 11 22 11 26 0 3 -7 24 -34 48 -60
35 -38 41 -49 29 -55 -11 -6 -13 -17 -9 -37 6 -27 4 -29 -32 -36 -21 -4 -43
-11 -50 -16 -7 -5 -21 -7 -33 -3 -30 10 -60 -4 -60 -26 0 -16 -6 -20 -27 -17
-27 3 -63 -26 -63 -49 0 -5 -13 -22 -30 -38 -16 -16 -30 -37 -30 -47 0 -25 -7
-23 -41 12 -16 16 -35 27 -42 25 -7 -2 -27 -6 -46 -9 -30 -5 -33 -4 -28 15 3
12 0 22 -9 26 -8 3 -14 12 -14 20 0 8 -5 23 -11 34 -8 17 -13 18 -25 8 -11 -9
-18 -9 -26 -1 -8 8 -7 13 5 18 9 3 17 13 17 21 0 8 -6 12 -12 9 -7 -3 -21 -9
-30 -12 -13 -5 -16 -13 -11 -35 7 -35 -14 -40 -42 -9 -19 21 -45 27 -45 11 0
-6 5 -13 11 -16 29 -19 76 -176 52 -175 -15 1 -59 45 -73 73 -18 36 -55 38
-46 2 7 -26 2 -29 -41 -26 -12 1 -26 -5 -31 -14 -12 -23 -46 -15 -50 12 -2 12
-15 26 -33 33 -16 7 -29 17 -29 22 0 22 -43 68 -63 69 -12 0 -16 3 -9 6 6 2
10 9 6 14 -8 14 -24 11 -24 -5 0 -8 -13 -17 -29 -21 -16 -3 -37 -18 -46 -32
-14 -20 -22 -24 -45 -19 -26 5 -31 1 -52 -37 -24 -44 -37 -49 -53 -22 -7 10
-7 18 1 23 14 9 24 51 14 57 -5 3 -19 1 -32 -4 -14 -5 -31 -6 -39 -1 -11 7 -9
14 9 39 18 25 20 31 7 31 -9 0 -18 7 -21 15 -4 8 -12 15 -20 15 -28 0 -13 18
21 24 20 4 39 16 46 27 6 13 18 19 28 16 23 -6 22 40 -1 57 -10 7 -18 18 -18
24 0 6 -9 16 -20 22 -15 8 -19 17 -15 31 4 10 2 19 -4 19 -6 0 -20 18 -31 40
-11 22 -25 40 -30 40 -6 0 -10 6 -10 14 0 21 -19 30 -35 16 -8 -6 -19 -9 -25
-5 -13 8 -13 48 0 61 5 5 15 37 21 69 10 59 34 125 46 125 3 0 11 -8 18 -17
11 -15 15 -14 46 7 19 13 37 28 40 32 10 15 94 66 109 67 8 1 34 -6 57 -15z
m203 -18 c0 -11 -19 -15 -25 -6 -3 5 1 10 9 10 9 0 16 -2 16 -4z m44 -64 c3
-5 -1 -9 -9 -9 -8 0 -15 4 -15 9 0 4 4 8 9 8 6 0 12 -4 15 -8z m76 -7 c0 -8
-4 -15 -10 -15 -5 0 -7 7 -4 15 4 8 8 15 10 15 2 0 4 -7 4 -15z m1190 -1 c0
-8 -4 -12 -10 -9 -5 3 -10 10 -10 16 0 5 5 9 10 9 6 0 10 -7 10 -16z m-2441
-218 c42 -85 48 -110 31 -136 -5 -9 -5 -19 1 -26 7 -9 5 -22 -5 -43 -9 -17
-15 -34 -14 -38 1 -4 -4 -36 -11 -70 -12 -55 -11 -102 2 -165 2 -10 10 -24 19
-30 16 -13 33 -85 48 -203 10 -77 12 -82 89 -248 23 -48 41 -90 41 -92 0 -5
85 -202 130 -300 10 -22 23 -55 30 -72 7 -18 17 -30 22 -27 5 3 4 11 -2 19 -7
8 -9 18 -6 23 3 5 -3 17 -14 27 -10 9 -16 23 -14 30 7 16 -51 160 -140 355
-37 80 -74 163 -82 185 -9 22 -20 48 -25 58 -5 9 -6 17 -2 17 16 -1 39 -26 55
-60 9 -19 30 -66 48 -105 17 -38 54 -113 81 -166 26 -53 45 -100 41 -104 -4
-5 -2 -5 5 -1 13 7 59 -53 113 -150 19 -35 73 -118 118 -185 102 -149 104
-152 66 -143 -19 4 4 -16 64 -55 50 -33 92 -65 92 -70 0 -23 -23 -19 -83 13
-137 74 -267 174 -267 205 0 9 -8 28 -18 43 l-18 27 -49 -39 c-28 -22 -90 -91
-140 -154 -49 -62 -107 -124 -127 -137 -21 -13 -38 -27 -38 -31 0 -5 -6 -8
-14 -8 -7 0 -19 -7 -26 -15 -8 -9 -22 -13 -39 -10 -14 3 -20 2 -13 -1 18 -9
15 -24 -6 -24 -27 0 -33 -10 -21 -33 10 -18 9 -19 -15 -13 -25 6 -38 -8 -14
-16 7 -3 1 -14 -17 -29 -15 -13 -36 -32 -46 -41 -10 -10 -26 -14 -38 -11 -24
6 -28 23 -6 23 9 0 18 7 22 16 3 8 17 20 30 25 24 9 23 29 -2 29 -7 0 -15 7
-19 15 -3 9 0 15 9 15 8 0 19 9 25 19 5 11 31 27 57 37 27 9 53 22 58 27 7 7
5 7 -4 2 -11 -6 -13 -4 -8 9 4 10 7 22 7 27 0 5 7 9 15 9 8 0 15 7 15 15 0 9
9 15 21 15 13 0 23 8 26 20 4 14 12 20 27 18 11 -2 21 2 22 7 3 34 40 88 66
98 11 4 15 12 11 23 -4 10 0 20 10 26 9 5 14 15 10 24 -3 9 0 20 8 25 12 7 12
11 1 18 -11 7 -11 11 2 23 8 9 12 18 9 21 -3 4 -2 14 2 24 5 10 8 21 7 25 -1
3 -3 27 -6 52 -2 26 -10 54 -18 63 -11 15 -11 16 7 9 16 -6 15 -2 -8 21 -15
16 -27 34 -27 41 0 7 -6 12 -12 13 -10 0 -10 2 0 6 12 4 7 13 -48 80 -6 7 -10
18 -10 26 0 7 -11 24 -24 36 -20 19 -23 27 -14 41 9 14 8 22 -7 36 -17 17 -17
19 -2 22 23 5 21 17 -5 35 -18 12 -21 18 -11 28 10 10 8 19 -12 45 -17 23 -21
34 -12 37 8 4 9 8 1 14 -6 4 -16 18 -23 31 -7 12 -15 20 -20 18 -9 -6 -31 68
-34 116 -2 35 -27 80 -27 50 0 -7 5 -12 10 -12 6 0 10 -4 10 -10 0 -5 -5 -10
-11 -10 -13 0 -55 -51 -51 -62 1 -5 -7 -8 -17 -8 -11 0 -23 -5 -27 -11 -4 -8
-9 -7 -15 2 -6 10 -9 2 -9 -21 0 -26 -3 -31 -10 -20 -7 11 -10 6 -11 -20 0
-19 -3 -29 -6 -22 -5 14 -23 16 -23 3 0 -18 -83 -140 -92 -135 -10 6 10 46 28
57 8 4 23 28 34 52 11 25 25 45 30 45 6 0 10 9 10 20 0 11 5 20 10 20 6 0 10
11 10 25 0 31 26 85 41 85 5 0 21 25 34 55 14 30 28 55 33 55 4 0 14 28 21 63
7 34 17 67 22 73 5 6 13 43 19 83 6 44 20 89 35 114 50 84 49 83 29 124 -11
21 -27 49 -36 63 -21 33 -32 70 -20 70 5 0 28 -38 51 -84z m361 64 c0 -5 -2
-10 -4 -10 -3 0 -8 5 -11 10 -3 6 -1 10 4 10 6 0 11 -4 11 -10z m125 -200 c3
-5 -3 -10 -14 -10 -12 0 -21 5 -21 10 0 6 6 10 14 10 8 0 18 -4 21 -10z m2365
-74 c-9 -40 -18 -56 -31 -56 -14 0 -11 28 7 66 20 42 35 36 24 -10z m140 -118
c0 -38 -27 -36 -35 2 -4 16 -10 32 -15 35 -4 3 -6 14 -3 25 5 19 7 19 29 -7
13 -16 24 -40 24 -55z m-2822 2 c9 -19 30 -48 47 -65 122 -119 349 -372 386
-430 58 -93 92 -163 86 -179 -3 -8 1 -13 11 -12 12 1 16 -6 15 -22 -2 -16 5
-26 22 -34 14 -6 35 -28 47 -47 13 -20 39 -54 59 -76 20 -22 66 -78 102 -125
115 -148 274 -322 412 -451 28 -26 63 -63 78 -83 16 -20 52 -55 80 -77 29 -23
68 -55 87 -73 77 -70 161 -129 192 -135 l33 -7 -45 -31 c-25 -17 -98 -59 -164
-93 -94 -49 -120 -59 -127 -49 -5 8 -19 30 -31 49 -64 102 -256 283 -340 319
-23 10 -81 47 -128 83 -47 36 -108 72 -136 82 -61 20 -69 29 -164 171 -41 61
-95 142 -121 181 -26 39 -61 98 -77 131 -15 32 -43 80 -60 105 -18 26 -32 50
-32 53 0 4 -17 28 -37 54 -21 25 -44 57 -52 71 -34 61 -89 178 -95 205 -16 66
-28 145 -37 250 -5 61 -13 133 -18 160 -15 87 -21 141 -15 125 4 -8 14 -31 22
-50z m2792 -45 c5 -14 16 -25 25 -25 12 0 14 -6 9 -27 -7 -27 -7 -27 11 -10
22 22 46 7 26 -17 -9 -11 -9 -15 1 -19 10 -3 11 -8 1 -26 -18 -29 -16 -33 7
-26 28 9 25 -1 -15 -40 -37 -38 -51 -44 -41 -20 3 8 1 15 -4 15 -15 0 -33 81
-21 93 15 15 14 27 -4 27 -18 0 -20 30 -2 31 10 0 10 2 0 6 -12 4 -19 63 -8
63 3 0 10 -11 15 -25z m47 3 c-3 -8 -6 -5 -6 6 -1 11 2 17 5 13 3 -3 4 -12 1
-19z m-2004 -68 c-6 -22 -21 -35 -29 -27 -7 7 15 47 25 47 5 0 7 -9 4 -20z
m621 -79 c3 -5 0 -11 -8 -14 -15 -6 -26 1 -26 15 0 11 27 10 34 -1z m-104 -66
c0 -17 -11 -28 -42 -43 -44 -20 -61 -21 -41 -1 8 8 8 20 1 40 -12 36 -3 68 14
51 17 -17 28 -15 28 6 1 27 40 -25 40 -53z m-679 -2 c-8 -15 -10 -15 -11 -2 0
17 10 32 18 25 2 -3 -1 -13 -7 -23z m279 -13 c0 -5 -5 -10 -11 -10 -5 0 -7 5
-4 10 3 6 8 10 11 10 2 0 4 -4 4 -10z m426 -47 c-10 -10 -19 5 -10 18 6 11 8
11 12 0 2 -7 1 -15 -2 -18z m-1986 -308 c-35 -20 -62 -19 -36 0 11 8 29 15 40
15 19 -1 19 -2 -4 -15z m-61 -19 c-2 -2 -15 -9 -29 -16 -23 -12 -24 -12 -11 3
7 10 20 17 29 17 8 0 13 -2 11 -4z m-74 -38 c-11 -7 -20 -10 -20 -8 0 3 -11
-3 -25 -13 -28 -20 -43 -22 -38 -5 4 12 61 36 88 37 10 0 9 -3 -5 -11z m-122
-55 c-13 -2 -23 -9 -23 -14 0 -5 -5 -9 -11 -9 -8 0 -8 5 1 15 7 8 22 14 34 14
20 -2 20 -2 -1 -6z m-117 -68 c-36 -19 -42 -19 -26 0 7 8 22 15 34 15 18 0 17
-2 -8 -15z m-76 -40 c-14 -7 -27 -11 -30 -9 -6 7 22 24 40 23 9 0 5 -6 -10
-14z m-70 -45 c-13 -11 -25 -20 -27 -20 -2 0 1 9 7 20 6 11 18 20 27 20 12 0
11 -4 -7 -20z m3748 -9 c3 -8 -1 -12 -9 -9 -7 2 -15 10 -17 17 -3 8 1 12 9 9
7 -2 15 -10 17 -17z m-3800 -23 c-7 -7 -33 -24 -58 -37 -25 -13 -56 -33 -69
-43 -13 -10 -29 -18 -35 -18 -16 1 42 50 59 50 8 0 18 6 22 13 8 12 69 45 86
46 5 1 2 -5 -5 -11z m3821 -66 c-7 -29 -16 -52 -21 -52 -5 0 -6 10 -2 23 4 12
8 38 10 57 3 46 2 46 14 34 7 -7 7 -27 -1 -62z m-68 15 c-13 -13 -15 1 -4 30
7 17 8 17 11 -1 2 -10 -1 -23 -7 -29z m16 -71 c-6 -17 -27 -18 -33 -2 -3 9 -3
24 1 34 6 16 7 16 21 -3 8 -10 13 -24 11 -29z m-3695 -4 c14 -24 15 -29 3 -37
-8 -6 -15 -16 -17 -23 -2 -7 -20 -31 -40 -54 -21 -22 -35 -44 -33 -48 2 -4 0
-20 -5 -36 -6 -16 -15 -48 -20 -71 l-10 -41 -36 10 c-25 7 -40 6 -47 -1 -8 -8
-8 -11 1 -11 7 0 12 -10 12 -22 0 -19 -2 -20 -14 -8 -20 21 -32 65 -15 55 9
-6 10 -3 4 11 -15 37 -19 67 -7 60 8 -5 10 2 6 24 -5 23 -3 30 10 30 13 0 14
4 3 27 -9 21 -9 27 1 31 6 2 12 12 12 22 0 20 75 87 92 82 5 -1 11 4 14 11 3
8 20 14 38 15 25 1 36 -5 48 -26z m-312 -6 c-25 -24 -161 -98 -168 -91 -9 9
28 35 50 35 10 0 18 4 18 9 0 5 8 12 19 16 10 3 29 14 41 25 28 24 64 29 40 6z
m3970 -27 c0 -10 -4 -19 -10 -19 -5 0 -10 12 -10 26 0 14 4 23 10 19 6 -3 10
-15 10 -26z m-4212 -103 c-16 -8 -33 -18 -39 -22 -8 -4 -8 0 0 15 8 13 21 21
39 21 l27 0 -27 -14z m-112 -52 c-54 -26 -71 -30 -61 -14 9 14 65 38 90 39 12
0 -1 -10 -29 -25z m-76 -33 c0 -5 -9 -11 -21 -14 -16 -4 -18 -3 -8 9 13 16 29
19 29 5z m4360 -12 c0 -12 -57 -88 -75 -101 -6 -5 -6 -8 2 -8 6 0 19 7 28 16
9 9 19 14 22 10 12 -12 -176 -166 -203 -166 -4 0 -12 -7 -18 -15 -10 -14 -147
-77 -154 -71 -7 8 12 36 24 36 7 0 22 10 33 21 11 12 26 19 34 16 9 -3 14 0
13 9 0 9 19 27 43 42 25 14 41 20 36 13 -9 -16 9 -8 38 17 9 8 17 12 17 8 0
-4 7 -1 15 7 8 9 20 17 26 19 9 3 9 9 1 24 -10 17 -11 17 -12 2 0 -10 -17 -26
-40 -37 -42 -20 -52 -18 -22 6 16 13 15 14 -5 8 -31 -9 -29 1 8 35 27 24 35
27 60 18 15 -5 30 -15 32 -21 2 -7 2 -2 0 11 -2 15 9 35 39 66 44 46 58 54 58
35z m-4459 -38 c-13 -10 -47 -26 -75 -36 -28 -10 -60 -24 -71 -32 -25 -17 -40
-17 -23 0 7 8 37 22 66 31 28 10 52 21 52 24 0 9 40 29 60 31 10 0 6 -6 -9
-18z m708 -50 c7 -5 11 -14 7 -20 -4 -6 -8 -25 -11 -43 -2 -18 -9 -64 -15
-103 -13 -80 -11 -339 3 -372 7 -16 6 -27 -3 -38 -8 -10 -9 -15 -1 -15 19 0
12 -26 -14 -48 -16 -14 -27 -18 -31 -10 -4 6 3 20 16 30 15 12 19 22 13 31 -5
6 -8 40 -7 75 1 34 -1 62 -5 62 -10 0 -10 354 1 367 5 7 7 21 3 33 -4 12 -2
20 5 20 7 0 10 8 7 20 -5 21 8 26 32 11z m1666 -63 c42 -40 57 -88 28 -88 -12
0 -28 16 -44 42 -49 87 -44 102 16 46z m-2615 7 c-33 -19 -49 -19 -24 0 10 8
26 14 34 14 9 0 4 -6 -10 -14z m-130 -60 c0 -8 -111 -57 -117 -51 -4 3 -1 6 5
6 6 0 17 6 24 13 32 28 88 49 88 32z m3009 -26 c-16 -10 -23 -4 -14 10 3 6 11
8 17 5 6 -4 5 -9 -3 -15z m1452 -12 c-16 -16 -26 0 -10 19 9 11 15 12 17 4 2
-6 -1 -17 -7 -23z m-4591 -27 c0 -5 -6 -10 -14 -10 -7 0 -19 -6 -25 -13 -6 -8
-28 -19 -49 -25 -21 -6 -47 -20 -57 -30 -11 -10 -33 -25 -50 -33 -55 -28 -80
-44 -88 -56 -10 -17 -30 -17 -25 -1 5 13 44 39 94 62 17 8 36 22 44 30 7 9 16
16 20 16 10 0 84 34 120 55 30 18 30 18 30 5z m150 -20 c0 -5 -4 -10 -9 -10
-6 0 -13 5 -16 10 -3 6 1 10 9 10 9 0 16 -4 16 -10z m-60 -18 c0 -5 -7 -9 -15
-9 -8 0 -12 4 -9 9 3 4 9 8 15 8 5 0 9 -4 9 -8z m35 -12 c-3 -5 -12 -10 -18
-10 -7 0 -6 4 3 10 19 12 23 12 15 0z m55 -10 c0 -5 -4 -10 -10 -10 -5 0 -10
5 -10 10 0 6 5 10 10 10 6 0 10 -4 10 -10z m-40 -19 c0 -6 -4 -13 -10 -16 -5
-3 -10 1 -10 9 0 9 5 16 10 16 6 0 10 -4 10 -9z m-160 -17 c0 -2 -9 -4 -20 -4
-11 0 -20 4 -20 9 0 5 9 7 20 4 11 -3 20 -7 20 -9z m117 -19 c-16 -17 -17 -14
-10 14 4 15 8 19 13 10 5 -6 3 -18 -3 -24z m-183 -54 c-5 -6 -54 40 -54 50 0
5 13 -4 29 -19 15 -15 26 -29 25 -31z m4516 39 c-8 -5 -19 -10 -25 -10 -5 0
-3 5 5 10 8 5 20 10 25 10 6 0 3 -5 -5 -10z m-4590 -30 c0 -5 -4 -10 -10 -10
-5 0 -10 5 -10 10 0 6 5 10 10 10 6 0 10 -4 10 -10z m-171 -27 c0 -5 -13 -18
-30 -31 -22 -18 -29 -20 -29 -8 0 8 7 22 16 30 16 16 44 22 43 9z m2376 -3 c3
-5 -1 -10 -9 -10 -9 0 -16 5 -16 10 0 6 4 10 9 10 6 0 13 -4 16 -10z m-60 -20
c3 -5 2 -10 -4 -10 -5 0 -13 5 -16 10 -3 6 -2 10 4 10 5 0 13 -4 16 -10z
m-2387 -37 c-2 -10 -12 -19 -24 -21 -11 -2 -35 -16 -54 -33 -19 -17 -48 -37
-65 -46 -29 -16 -30 -15 -15 3 20 25 53 53 63 54 4 0 13 5 20 10 65 54 81 61
75 33z m-18 -53 c0 -5 -4 -10 -10 -10 -5 0 -10 5 -10 10 0 6 5 10 10 10 6 0
10 -4 10 -10z m2334 -8 c-34 -31 -94 -64 -94 -52 0 7 9 14 20 17 11 3 20 9 20
14 0 5 6 9 14 9 7 0 19 7 26 15 7 8 17 15 23 15 6 0 2 -8 -9 -18z m2206 -2
c-10 -18 -87 -70 -104 -70 -7 0 102 87 112 89 1 1 -2 -8 -8 -19z m-4512 -35
c-3 -3 -9 2 -12 12 -6 14 -5 15 5 6 7 -7 10 -15 7 -18z m-208 -24 c0 -13 -26
-32 -33 -24 -4 3 -7 1 -7 -5 0 -13 -35 -52 -46 -52 -4 0 -13 -8 -20 -17 -7
-10 -15 -15 -19 -12 -8 9 96 117 113 118 6 1 12 -3 12 -8z m120 -1 c0 -5 -2
-10 -4 -10 -3 0 -8 5 -11 10 -3 6 -1 10 4 10 6 0 11 -4 11 -10z m2279 -11
c-16 -10 -23 -4 -14 10 3 6 11 8 17 5 6 -4 5 -9 -3 -15z m1844 6 c19 -8 37
-12 40 -9 5 5 57 -58 57 -69 0 -14 -28 -6 -45 13 -10 11 -31 20 -48 20 -29 0
-87 33 -87 51 0 14 43 11 83 -6z m118 -104 c-6 -10 -24 -30 -41 -45 -29 -24
-32 -24 -50 -9 -20 17 -17 38 5 30 7 -3 30 5 51 19 47 29 47 29 35 5z m-4501
-10 c0 -5 -7 -14 -15 -21 -12 -10 -15 -10 -15 2 0 8 3 18 7 21 9 10 23 9 23
-2z m-40 -41 c0 -6 -8 -14 -17 -17 -10 -4 -22 -11 -28 -16 -5 -4 -23 -17 -40
-27 -55 -36 -67 -45 -98 -77 -37 -36 -55 -61 -63 -85 -4 -10 -13 -18 -21 -18
-20 0 -7 37 24 66 13 12 28 35 32 51 5 20 14 29 33 31 14 2 34 12 44 23 9 10
22 19 27 19 6 0 18 6 26 14 14 12 71 46 79 46 1 0 2 -5 2 -10z m1917 -42 c-3
-7 -5 -2 -5 12 0 14 2 19 5 13 2 -7 2 -19 0 -25z m-2040 -113 c0 -18 -19 -15
-25 3 -2 7 3 12 11 12 7 0 14 -7 14 -15z m-29 -17 c19 -19 14 -30 -9 -23 -19
6 -21 4 -16 -14 6 -26 -15 -28 -34 -4 -12 15 -12 16 3 10 13 -5 19 0 24 18 7
28 14 31 32 13z m-158 -95 c0 -5 -16 -25 -35 -45 -19 -20 -35 -41 -35 -47 0
-6 -4 -11 -9 -11 -5 0 -13 -10 -17 -22 -7 -26 -59 -143 -75 -172 -6 -10 -20
-35 -31 -55 -12 -20 -29 -58 -39 -86 -12 -32 -18 -42 -19 -27 0 12 11 44 24
70 13 26 26 60 30 76 4 17 16 41 26 56 10 14 21 42 25 63 4 20 11 37 16 37 5
0 14 11 19 25 26 70 120 177 120 138z m5190 -378 c-7 -8 -18 -15 -24 -15 -6 0
-3 7 7 14 9 7 17 19 18 27 0 11 2 11 6 1 3 -7 -1 -19 -7 -27z m-5390 -325 c12
-8 9 -10 -12 -10 -15 0 -30 5 -33 10 -8 13 25 13 45 0z m39 -116 c8 -8 -64 2
-78 10 -6 4 -9 12 -6 17 6 8 71 -13 84 -27z m761 26 c0 -5 -4 -10 -10 -10 -5
0 -10 5 -10 10 0 6 5 10 10 10 6 0 10 -4 10 -10z m24 -45 c-4 -8 -9 -15 -13
-15 -4 0 -8 7 -8 15 0 8 6 15 13 15 8 0 11 -6 8 -15z m-14 -80 c0 -8 -4 -15
-10 -15 -5 0 -10 7 -10 15 0 8 5 15 10 15 6 0 10 -7 10 -15z m60 0 c0 -8 -4
-15 -10 -15 -5 0 -10 7 -10 15 0 8 5 15 10 15 6 0 10 -7 10 -15z m-773 -11
c-3 -3 -12 -4 -19 -1 -8 3 -5 6 6 6 11 1 17 -2 13 -5z m763 -74 c0 -5 -7 -10
-16 -10 -8 0 -12 5 -9 10 3 6 10 10 16 10 5 0 9 -4 9 -10z m1290 -10 c0 -5 -5
-10 -11 -10 -5 0 -7 5 -4 10 3 6 8 10 11 10 2 0 4 -4 4 -10z m-175 -10 c3 -5
1 -10 -4 -10 -6 0 -11 5 -11 10 0 6 2 10 4 10 3 0 8 -4 11 -10z m1280 0 c3 -5
2 -10 -4 -10 -5 0 -13 5 -16 10 -3 6 -2 10 4 10 5 0 13 -4 16 -10z m2095 0 c0
-5 -5 -10 -11 -10 -5 0 -7 5 -4 10 3 6 8 10 11 10 2 0 4 -4 4 -10z m-3490 -4
c0 -3 -4 -8 -10 -11 -5 -3 -10 -1 -10 4 0 6 5 11 10 11 6 0 10 -2 10 -4z m42
-18 c-7 -7 -12 -8 -12 -2 0 14 12 26 19 19 2 -3 -1 -11 -7 -17z m-1397 -8 c-3
-5 -10 -10 -16 -10 -5 0 -9 5 -9 10 0 6 7 10 16 10 8 0 12 -4 9 -10z m2522 4
c-3 -3 -12 -4 -19 -1 -8 3 -5 6 6 6 11 1 17 -2 13 -5z m415 -16 c-7 -7 -12 -8
-12 -2 0 14 12 26 19 19 2 -3 -1 -11 -7 -17z m248 12 c0 -5 -5 -10 -11 -10 -5
0 -7 5 -4 10 3 6 8 10 11 10 2 0 4 -4 4 -10z m1250 0 c0 -5 -2 -10 -4 -10 -3
0 -8 5 -11 10 -3 6 -1 10 4 10 6 0 11 -4 11 -10z m65 0 c3 -5 -1 -10 -9 -10
-9 0 -16 5 -16 10 0 6 4 10 9 10 6 0 13 -4 16 -10z m56 -13 c-13 -13 -26 -3
-16 12 3 6 11 8 17 5 6 -4 6 -10 -1 -17z m1789 8 c0 -8 -4 -15 -10 -15 -5 0
-10 7 -10 15 0 8 5 15 10 15 6 0 10 -7 10 -15z m-6573 -1 c-3 -3 -12 -4 -19
-1 -8 3 -5 6 6 6 11 1 17 -2 13 -5z m723 -4 c0 -5 -4 -10 -10 -10 -5 0 -10 5
-10 10 0 6 5 10 10 10 6 0 10 -4 10 -10z m1235 0 c3 -5 1 -10 -4 -10 -6 0 -11
5 -11 10 0 6 2 10 4 10 3 0 8 -4 11 -10z m1165 0 c0 -5 -4 -10 -10 -10 -5 0
-10 5 -10 10 0 6 5 10 10 10 6 0 10 -4 10 -10z"/>
<path d="M3700 8820 c-9 -6 -10 -10 -3 -10 6 0 15 5 18 10 8 12 4 12 -15 0z"/>
<path d="M4540 8015 c0 -3 7 -17 16 -30 23 -36 39 -31 17 5 -15 27 -33 40 -33
25z"/>
<path d="M6200 7390 c0 -5 9 -10 21 -10 11 0 17 5 14 10 -3 6 -13 10 -21 10
-8 0 -14 -4 -14 -10z"/>
<path d="M6480 7570 c0 -5 -18 -10 -40 -10 -30 0 -40 -4 -40 -16 0 -14 9 -16
50 -12 28 3 50 1 50 -3 0 -5 9 -9 20 -9 18 0 19 3 10 20 -12 23 -50 46 -50 30z"/>
<path d="M6577 7530 c-17 -20 -16 -20 25 -14 40 5 42 4 24 -10 -16 -13 -17
-16 -4 -16 23 0 30 27 12 45 -21 20 -36 19 -57 -5z"/>
<path d="M6585 7460 c-3 -5 1 -13 10 -16 22 -9 29 1 11 15 -10 8 -16 9 -21 1z"/>
<path d="M6745 7330 c-3 -6 1 -13 10 -16 19 -8 30 0 20 15 -8 14 -22 14 -30 1z"/>
<path d="M6740 7190 c0 -5 4 -10 9 -10 6 0 13 5 16 10 3 6 -1 10 -9 10 -9 0
-16 -4 -16 -10z"/>
<path d="M6385 5430 c3 -5 8 -10 11 -10 2 0 4 5 4 10 0 6 -5 10 -11 10 -5 0
-7 -4 -4 -10z"/>
<path d="M6391 4904 c0 -11 3 -14 6 -6 3 7 2 16 -1 19 -3 4 -6 -2 -5 -13z"/>
<path d="M4552 3390 c-12 -12 -22 -25 -22 -30 0 -6 -7 -10 -15 -10 -8 0 -15
-4 -15 -9 0 -10 35 -2 61 14 18 11 35 55 22 55 -5 0 -19 -9 -31 -20z"/>
<path d="M3567 3324 c-4 -4 -7 -14 -7 -23 0 -11 3 -12 11 -4 6 6 10 16 7 23
-2 6 -7 8 -11 4z"/>
<path d="M3555 3270 c3 -5 8 -10 11 -10 2 0 4 5 4 10 0 6 -5 10 -11 10 -5 0
-7 -4 -4 -10z"/>
<path d="M3970 2573 c0 -18 56 -158 73 -184 15 -21 17 -21 23 -4 5 12 -2 37
-19 69 -41 77 -76 132 -77 119z"/>
<path d="M4060 2347 c0 -24 32 -85 37 -70 2 6 -5 29 -16 50 -12 23 -20 31 -21
20z"/>
<path d="M4096 2248 c-16 -9 -16 -12 6 -35 12 -14 46 -37 73 -51 67 -36 65
-35 65 -23 0 17 -33 46 -52 46 -9 0 -29 16 -45 36 -24 30 -33 35 -47 27z"/>
<path d="M3520 1869 c0 -5 5 -7 10 -4 6 3 10 8 10 11 0 2 -4 4 -10 4 -5 0 -10
-5 -10 -11z"/>
<path d="M3876 3275 c4 -8 10 -15 15 -15 4 0 6 7 3 15 -4 8 -10 15 -15 15 -4
0 -6 -7 -3 -15z"/>
<path d="M3930 3221 c0 -6 4 -13 10 -16 6 -3 7 1 4 9 -7 18 -14 21 -14 7z"/>
<path d="M3960 3194 c0 -16 87 -136 118 -161 28 -23 42 -28 42 -15 0 16 -159
193 -160 176z"/>
<path d="M3997 3033 c-14 -14 -7 -32 11 -26 14 6 15 4 4 -9 -15 -19 -7 -45 41
-119 42 -66 69 -91 89 -84 8 3 22 -3 32 -14 19 -21 36 -20 36 3 0 15 -86 106
-100 106 -6 0 -16 11 -22 25 -6 14 -18 25 -26 25 -9 0 -12 6 -8 16 3 8 2 12
-3 9 -10 -6 -26 33 -17 42 3 3 -1 12 -9 19 -15 16 -19 17 -28 7z"/>
<path d="M4080 2960 c0 -5 7 -10 16 -10 8 0 12 5 9 10 -3 6 -10 10 -16 10 -5
0 -9 -4 -9 -10z"/>
<path d="M4250 2822 c0 -5 7 -13 16 -16 10 -4 14 -1 12 6 -5 15 -28 23 -28 10z"/>
<path d="M4180 2459 c0 -5 4 -8 9 -5 12 8 22 -34 15 -60 -3 -13 1 -26 13 -34
15 -12 16 -12 6 0 -15 16 -18 44 -4 36 11 -7 1 45 -12 62 -12 15 -27 16 -27 1z"/>
<path d="M4232 2440 c-2 -31 12 -57 22 -41 4 6 3 11 -3 11 -5 0 -12 12 -14 28
-4 26 -4 26 -5 2z"/>
<path d="M4290 2359 c0 -5 5 -7 10 -4 6 3 10 8 10 11 0 2 -4 4 -10 4 -5 0 -10
-5 -10 -11z"/>
<path d="M2530 2120 c0 -5 7 -10 15 -10 8 0 15 5 15 10 0 6 -7 10 -15 10 -8 0
-15 -4 -15 -10z"/>
<path d="M6155 2030 c3 -5 10 -10 16 -10 5 0 9 5 9 10 0 6 -7 10 -16 10 -8 0
-12 -4 -9 -10z"/>
<path d="M2925 6547 c-12 -30 0 -290 14 -315 12 -23 13 -24 26 -4 8 10 22 58
31 105 16 80 16 89 1 129 -10 24 -28 57 -41 73 -21 26 -25 28 -31 12z"/>
<path d="M2970 5833 c0 -59 68 -203 95 -203 21 0 19 43 -4 71 -10 13 -32 52
-50 87 -33 65 -41 74 -41 45z"/>
<path d="M3010 5455 c0 -8 4 -15 9 -15 5 0 11 -23 15 -50 4 -31 11 -48 17 -44
11 6 5 50 -13 97 -11 29 -28 37 -28 12z"/>
<path d="M40 66 c0 -18 87 -46 137 -45 21 0 31 3 23 6 -8 2 -24 9 -35 14 -29
13 -106 39 -116 39 -5 0 -9 -6 -9 -14z"/>
<path d="M435 19 c-11 -17 1 -21 15 -4 8 9 8 15 2 15 -6 0 -14 -5 -17 -11z"/>
</g>
</svg>
