<?xml version="1.0" standalone="no"?>
<!DOCTYPE svg PUBLIC "-//W3C//DTD SVG 20010904//EN"
 "http://www.w3.org/TR/2001/REC-SVG-20010904/DTD/svg10.dtd">
<svg version="1.0" xmlns="http://www.w3.org/2000/svg"
 width="200.000000pt" height="200.000000pt" viewBox="0 0 200.000000 200.000000"
 preserveAspectRatio="xMidYMid meet">
<metadata>
Created by potrace 1.11, written by Peter Selinger 2001-2013
</metadata>
<g transform="translate(0.000000,200.000000) scale(0.100000,-0.100000)"
fill="#000000" stroke="none">
<path d="M651 1695 c-38 -17 -67 -50 -96 -109 -11 -22 -30 -46 -43 -52 -12 -6
-34 -22 -47 -34 -25 -23 -25 -26 -25 -190 0 -92 4 -189 9 -216 5 -27 12 -85
16 -129 3 -44 16 -104 28 -133 21 -53 22 -53 38 -33 11 13 20 17 24 11 3 -5 1
-10 -4 -10 -6 0 -11 -14 -11 -31 0 -27 -2 -30 -15 -19 -18 15 -14 18 -54 -44
-37 -60 -41 -107 -9 -121 12 -6 49 -47 82 -92 125 -169 151 -202 165 -202 15
-1 -14 40 -95 134 -28 33 -75 93 -103 133 -49 70 -51 75 -41 107 21 65 33 63
96 -16 142 -179 331 -359 374 -359 l23 0 -21 23 -22 24 115 112 c72 70 115
120 115 133 0 19 4 20 88 14 133 -10 146 -10 162 -5 31 9 53 43 63 95 5 24 1
36 -13 49 -17 15 -18 20 -6 44 9 16 11 34 5 48 -6 17 -3 22 17 27 14 4 24 14
24 25 0 13 10 20 36 24 46 8 64 23 64 55 0 26 -54 104 -108 155 -27 26 -29 32
-21 62 11 40 -14 232 -36 275 -8 16 -15 30 -15 32 0 2 24 4 53 4 28 1 66 7 82
15 l30 13 -55 7 c-30 3 -80 10 -110 14 -40 5 -51 4 -40 -4 8 -6 31 -11 50 -12
19 -1 49 -5 65 -10 19 -5 -1 -6 -55 -3 -47 3 -86 9 -88 13 -1 5 -10 17 -18 27
-14 18 -15 18 -9 -6 6 -24 5 -24 -9 -6 -9 11 -16 28 -16 38 0 10 -4 18 -10 18
-5 0 -10 -8 -10 -18 0 -18 -68 -92 -84 -92 -5 0 8 20 27 44 35 41 35 43 11 38
-30 -5 -31 4 -1 29 l22 20 -25 -7 c-34 -9 -100 -42 -125 -63 -20 -16 -20 -16
-1 7 11 12 16 22 11 22 -4 0 -2 7 5 15 7 8 18 15 24 15 6 0 4 -5 -4 -11 -12
-8 -12 -10 -1 -7 15 4 25 38 11 38 -4 0 -32 -16 -61 -35 l-54 -36 55 51 c59
55 38 51 -43 -7 -26 -19 -45 -39 -42 -43 3 -5 -36 -46 -87 -91 -118 -104 -117
-104 -93 -95 12 4 0 -13 -29 -43 -27 -28 -53 -48 -57 -45 -4 2 -15 -6 -23 -18
-9 -12 -18 -20 -20 -17 -8 8 39 112 53 117 10 3 12 0 8 -12 -4 -9 -3 -16 1
-16 12 1 237 213 235 221 -2 4 21 28 50 53 28 25 48 46 43 46 -12 0 -109 -84
-180 -155 -91 -93 -49 -32 56 80 51 54 79 89 61 77 -18 -13 -65 -57 -105 -100
-40 -42 -70 -73 -65 -67 11 14 9 27 -4 20 -5 -4 6 26 27 66 20 41 30 68 22 61
-14 -11 -31 -46 -85 -174 -18 -42 -38 -53 -23 -12 6 14 8 29 5 34 -7 12 15
112 28 130 7 8 2 6 -11 -4 -12 -11 -34 -44 -50 -75 l-27 -56 -6 40 c-7 48 -12
29 -10 -40 2 -51 -20 -131 -32 -118 -13 12 -7 84 9 114 8 17 13 33 10 36 -3 3
-11 -6 -17 -21 -9 -19 -15 -23 -21 -14 -4 8 -8 -4 -8 -29 0 -23 -4 -45 -10
-48 -6 -4 -10 12 -10 40 0 28 -4 44 -10 40 -5 -3 -10 -16 -10 -28 0 -12 -5
-29 -11 -37 -8 -11 -9 -4 -6 28 3 24 1 40 -4 36 -12 -7 -11 33 1 56 5 10 25
29 42 41 l33 23 -37 -42 c-23 -25 -35 -48 -32 -57 9 -23 43 -12 60 20 8 16 31
43 50 60 19 18 37 40 38 51 2 10 8 18 13 17 5 -1 10 5 10 13 0 18 -11 18 -27
-1 -7 -8 -15 -13 -19 -11 -4 3 -36 -17 -71 -45 -67 -51 -83 -59 -74 -34 4 8
12 15 19 15 8 0 23 14 35 31 12 16 40 41 62 55 37 24 52 26 216 33 l177 8
-168 1 c-182 2 -206 -3 -266 -53 -28 -24 -33 -26 -29 -10 2 11 21 30 43 42 45
25 37 30 -14 8z m34 -124 c-33 -32 -62 -57 -64 -55 -7 6 101 114 113 114 6 0
-16 -26 -49 -59z m505 6 c0 -11 -91 -75 -115 -81 -23 -5 -16 3 35 38 58 40 80
52 80 43z m-140 -52 c-28 -29 -31 -35 -17 -41 13 -5 14 -10 7 -25 -10 -17 -9
-17 27 -2 21 8 58 29 83 46 30 21 40 24 30 11 -8 -10 -22 -24 -30 -30 -11 -10
-9 -12 15 -10 17 1 35 5 42 9 6 4 18 5 26 1 10 -3 19 5 28 25 18 41 29 39 29
-4 0 -19 5 -35 11 -35 6 0 9 9 6 20 -3 13 0 20 9 20 8 0 15 -11 15 -27 2 -24
2 -25 6 -5 5 27 27 28 53 2 27 -27 36 -52 44 -120 4 -30 9 -72 13 -94 l5 -39
-33 6 c-25 4 -52 -3 -102 -25 -37 -17 -65 -33 -63 -35 2 -3 18 3 34 11 29 15
82 19 82 6 0 -3 -32 -22 -72 -41 -68 -34 -70 -36 -37 -36 41 -1 99 -13 99 -21
0 -2 -8 -11 -17 -18 -16 -12 -16 -13 -2 -14 9 0 24 9 33 19 17 18 16 20 -4 26
l-22 7 23 24 c12 13 30 24 38 24 14 0 14 2 1 10 -12 7 -11 10 5 16 11 4 23 12
27 18 12 17 10 -22 -2 -44 -9 -16 0 -31 55 -92 94 -104 99 -141 21 -152 -40
-6 -46 -10 -46 -32 0 -13 -5 -24 -11 -24 -6 0 -9 7 -5 15 6 16 -9 21 -18 6 -7
-10 -56 -2 -73 11 -7 6 -20 8 -28 4 -13 -4 -14 -2 -5 14 5 10 19 21 29 25 11
3 29 20 41 38 20 32 21 32 14 5 -7 -31 -3 -34 64 -41 23 -3 42 -1 42 3 0 5
-19 10 -42 12 -36 2 -43 6 -42 24 0 11 -5 26 -12 32 -10 9 -17 4 -34 -23 -11
-19 -29 -36 -38 -39 -19 -6 -58 -65 -45 -68 4 0 13 -2 18 -3 6 0 24 -9 42 -18
18 -9 42 -17 53 -17 17 0 21 -5 18 -27 -2 -17 -8 -27 -16 -25 -8 1 -11 -2 -7
-8 3 -5 -1 -10 -10 -10 -12 0 -7 -8 14 -26 20 -16 31 -35 31 -51 0 -20 -3 -23
-13 -14 -11 8 -13 5 -9 -19 2 -18 0 -30 -7 -30 -6 0 -8 8 -5 18 5 13 4 14 -4
3 -6 -8 -8 -19 -6 -25 2 -6 -7 -16 -21 -23 -14 -6 -25 -8 -25 -3 0 4 7 10 15
14 8 3 15 16 15 28 0 21 -2 20 -22 -9 -23 -32 -38 -42 -38 -24 0 6 5 13 10 16
6 3 10 13 10 22 0 13 -3 13 -15 3 -13 -11 -14 -10 -9 4 7 19 -21 51 -46 51 -8
1 -37 -15 -64 -33 -48 -33 -106 -52 -106 -34 0 5 25 26 56 47 53 37 104 52
104 31 0 -30 29 37 35 79 l6 50 -34 -36 c-19 -20 -36 -40 -38 -45 -7 -16 -137
-113 -143 -107 -3 4 8 15 25 25 16 10 28 22 25 27 -7 11 18 32 35 29 7 -2 13
3 14 10 0 8 9 20 19 28 16 11 17 14 4 14 -16 0 -100 -64 -106 -81 -2 -5 -13
-14 -25 -20 -12 -6 9 21 47 60 39 39 67 73 65 76 -3 3 -32 -22 -65 -55 -32
-33 -65 -58 -72 -55 -7 3 -10 1 -7 -4 3 -5 1 -12 -5 -16 -5 -3 -10 -1 -10 5 0
6 -4 8 -10 5 -23 -14 -8 12 21 38 37 32 33 47 -5 22 -14 -10 -26 -13 -26 -7 0
5 7 12 15 16 8 3 12 12 9 20 -5 14 -8 14 -21 1 -25 -25 -28 -17 -3 10 12 13
27 22 33 18 6 -3 7 -1 3 5 -4 7 -2 12 3 12 6 0 10 4 9 9 -2 5 6 17 17 25 11 8
17 16 14 16 -4 0 -28 -18 -55 -40 -35 -28 -50 -36 -56 -27 -5 7 -8 0 -7 -18 0
-16 -2 -40 -6 -52 -8 -24 10 -33 18 -10 2 6 8 9 12 4 5 -4 -2 -17 -15 -29 -22
-21 -22 -22 -4 -28 18 -7 18 -7 -1 -13 -11 -4 -26 -16 -32 -27 -11 -16 -10
-18 2 -14 8 4 15 11 15 17 0 6 3 8 6 4 3 -3 -6 -23 -21 -44 -24 -33 -24 -34
-2 -9 13 15 26 24 29 20 11 -21 7 -67 -8 -81 -12 -12 -12 -18 -3 -23 7 -5 8
-13 3 -21 -4 -8 18 14 50 49 67 71 102 83 91 29 -5 -22 -36 -61 -105 -131
l-98 -99 -29 18 c-38 25 -209 199 -257 263 -37 48 -56 89 -35 76 5 -3 10 3 10
13 1 17 2 17 6 1 12 -46 18 -8 15 85 -2 56 -1 98 4 94 4 -4 7 -27 5 -50 -1
-23 2 -53 8 -67 9 -21 10 -16 10 35 -1 111 1 142 10 120 13 -32 20 -106 10
-99 -11 7 -11 -34 1 -61 8 -18 9 -18 10 5 1 14 4 19 7 13 8 -22 23 -14 23 12
0 14 -4 25 -9 25 -5 0 -13 26 -16 58 -4 31 -11 71 -17 87 -6 20 -6 38 1 55
l10 25 0 -27 c1 -15 6 -30 11 -33 6 -3 11 -41 12 -83 l1 -77 6 63 6 64 25 -27
c54 -58 125 -84 153 -56 9 10 6 11 -13 6 -21 -5 -37 2 -77 35 -68 53 -93 95
-93 153 0 34 6 53 26 76 29 35 49 38 82 15 18 -12 26 -13 37 -4 8 7 15 17 15
23 0 7 -4 7 -12 -1 -8 -8 -17 -8 -30 -1 -18 10 -16 13 18 40 45 35 56 38 25 5
-30 -32 -6 -42 28 -12 19 16 16 8 -12 -31 -20 -29 -33 -53 -27 -53 5 0 6 -7 3
-17 -13 -33 16 -2 62 67 26 39 52 70 59 70 7 0 23 12 37 28 l24 27 -27 -24
c-22 -19 -28 -21 -28 -9 0 9 7 21 15 28 8 7 12 16 9 21 -3 5 18 23 45 41 28
17 49 33 46 36 -4 4 -67 -33 -185 -110 l-45 -30 35 32 c106 98 158 140 173
140 4 0 5 -6 1 -12 -4 -7 -3 -9 1 -5 10 8 16 37 9 37 -3 0 -32 -18 -65 -40
-33 -23 -64 -38 -69 -35 -5 3 -25 -5 -43 -19 -52 -40 -65 -31 -19 14 22 22 36
40 30 40 -6 0 -52 -39 -102 -87 l-91 -88 95 98 c52 53 101 97 110 97 23 1 93
47 82 54 -6 4 -13 2 -17 -4 -3 -5 -12 -10 -18 -10 -11 1 81 89 92 90 3 0 -10
-16 -29 -35z m-276 -17 c-6 -42 -72 -194 -80 -185 -6 6 18 71 28 78 5 3 11 21
12 40 3 30 34 109 43 109 2 0 0 -19 -3 -42z m-286 -45 c-11 -27 -23 -50 -26
-53 -10 -10 8 72 19 86 24 29 27 13 7 -33z m36 -47 c-15 -47 -29 -84 -31 -82
-5 5 24 119 39 151 23 52 19 13 -8 -69z m37 -39 c-10 -9 -11 -8 -5 6 3 10 9
15 12 12 3 -3 0 -11 -7 -18z m192 8 c-3 -9 -8 -14 -10 -11 -3 3 -2 9 2 15 9
16 15 13 8 -4z m-122 -100 c5 4 9 -9 9 -29 0 -19 -5 -38 -12 -42 -6 -4 -8 -3
-4 4 3 6 0 30 -9 54 -16 46 -20 100 -7 112 4 4 8 -17 10 -48 2 -33 7 -54 13
-51z m34 17 c-6 -14 -9 -12 -16 13 -5 16 -5 41 -2 55 6 24 7 23 16 -13 5 -20
6 -45 2 -55z m-160 -84 l-13 -53 -1 71 c-1 74 9 103 20 60 4 -14 1 -49 -6 -78z
m341 83 c-4 -5 -30 -28 -59 -52 l-52 -43 50 52 c43 46 77 69 61 43z m54 6 c0
-2 -19 -18 -42 -36 l-43 -32 39 35 c37 34 46 40 46 33z m-433 -39 c-3 -8 -6
-5 -6 6 -1 11 2 17 5 13 3 -3 4 -12 1 -19z m134 -71 c-8 -8 -11 0 -10 29 1 39
1 39 11 11 7 -21 7 -32 -1 -40z m775 -32 c-11 -8 -27 -15 -35 -15 -9 1 -2 7
14 15 39 18 44 18 21 0z m-899 -42 c-3 -10 -5 -2 -5 17 0 19 2 27 5 18 2 -10
2 -26 0 -35z m213 22 c0 -4 -8 -20 -17 -38 -13 -24 -18 -28 -21 -15 -4 20 14
58 28 58 6 0 10 -2 10 -5z m648 -16 c-2 -6 -7 -10 -11 -10 -4 1 -15 1 -24 1
-15 0 -16 2 -3 10 20 13 43 13 38 -1z m-723 -121 l-10 -93 -3 65 c-3 70 5 133
16 126 4 -2 3 -46 -3 -98z m-84 17 c-8 -15 -22 48 -14 65 4 10 9 3 13 -20 3
-19 4 -39 1 -45z m32 -87 l-10 -33 0 43 c-1 30 3 40 10 33 7 -7 7 -20 0 -43z
m852 -78 c19 -8 19 -9 -2 -9 -12 -1 -25 4 -28 9 -7 12 2 12 30 0z m-374 -200
c-13 -11 -21 -26 -18 -34 3 -8 0 -19 -7 -25 -10 -8 -12 -5 -10 12 1 12 3 30 3
39 1 15 17 24 46 27 6 0 -1 -9 -14 -19z m193 -12 c-5 -8 -2 -9 10 -5 9 4 15 3
12 -2 -3 -5 -18 -8 -33 -8 -25 0 -26 0 -8 13 23 17 28 18 19 2z m-205 -82
c-23 -26 -45 -44 -47 -41 -3 3 14 25 39 49 57 58 64 51 8 -8z"/>
<path d="M989 1419 l-24 -20 28 17 c15 9 27 18 27 20 0 8 -8 4 -31 -17z"/>
<path d="M949 1208 c-1 -1 -3 -20 -4 -40 -2 -31 0 -34 11 -23 18 18 22 57 7
62 -7 3 -14 3 -14 1z"/>
<path d="M985 1144 c-8 -20 -15 -47 -15 -60 0 -12 -4 -26 -10 -29 -5 -3 -10
-20 -10 -38 0 -29 1 -30 13 -12 7 11 14 31 15 44 0 14 5 36 11 50 13 36 22 81
16 81 -2 0 -12 -16 -20 -36z"/>
<path d="M751 1134 c-12 -15 -21 -32 -21 -38 0 -6 11 2 23 18 l24 29 16 -23
c14 -20 14 -26 2 -44 -32 -44 -5 -107 45 -106 11 1 9 4 -5 12 -35 20 -44 48
-25 78 9 13 13 11 29 -9 23 -30 47 -20 30 12 -21 40 -71 97 -84 97 -8 0 -23
-12 -34 -26z"/>
<path d="M902 1110 c-7 -11 -12 -25 -12 -32 1 -7 8 0 16 15 18 33 14 46 -4 17z"/>
<path d="M926 1104 c-3 -9 -2 -22 2 -31 6 -10 9 -5 9 16 0 35 -2 38 -11 15z"/>
<path d="M977 986 c-18 -27 -48 -108 -43 -114 2 -1 18 27 35 64 32 69 36 93 8
50z"/>
<path d="M1010 989 c-13 -23 -12 -23 5 -9 17 14 18 13 11 -5 -5 -15 -4 -17 4
-8 8 7 9 17 2 29 -9 16 -11 15 -22 -7z"/>
<path d="M1378 908 c-8 -5 2 -8 26 -8 22 0 36 3 32 7 -10 10 -43 11 -58 1z"/>
<path d="M949 852 c-27 -32 -33 -48 -11 -28 22 19 32 10 12 -10 -6 -6 -12 -20
-14 -31 -5 -24 16 -25 37 -3 10 12 9 12 -4 2 -22 -16 -31 -4 -16 22 8 16 18
66 12 66 0 0 -7 -8 -16 -18z"/>
<path d="M985 859 c-4 -6 -5 -12 -2 -15 2 -3 7 2 10 11 7 17 1 20 -8 4z"/>
<path d="M1111 863 c-1 -7 -16 -26 -33 -42 -18 -17 -28 -31 -22 -31 17 0 67
57 61 72 -4 9 -6 9 -6 1z"/>
<path d="M1104 806 c-10 -8 -17 -17 -14 -19 3 -3 16 3 30 13 29 22 14 27 -16
6z"/>
<path d="M1187 685 c-20 -14 -37 -30 -37 -35 0 -5 18 3 40 17 22 15 40 30 40
35 0 11 -1 11 -43 -17z"/>
<path d="M921 654 c0 -11 3 -14 6 -6 3 7 2 16 -1 19 -3 4 -6 -2 -5 -13z"/>
<path d="M1039 532 c-59 -63 -66 -80 -9 -24 29 29 51 54 48 57 -2 3 -20 -12
-39 -33z"/>
<path d="M1135 1686 c28 -7 59 -17 71 -24 12 -6 53 -18 92 -27 39 -9 83 -25
97 -36 14 -12 31 -19 38 -16 20 7 -53 45 -118 61 -33 8 -86 24 -117 35 -32 12
-70 21 -85 20 -20 0 -14 -4 22 -13z"/>
<path d="M933 1627 c-44 -47 -87 -107 -80 -113 2 -3 15 10 27 28 13 18 39 50
58 70 20 21 33 40 31 43 -3 2 -19 -10 -36 -28z"/>
<path d="M1383 1558 c7 -4 48 -7 92 -6 90 1 76 5 -32 10 -40 2 -67 0 -60 -4z"/>
<path d="M1488 1533 c6 -2 18 -2 25 0 6 3 1 5 -13 5 -14 0 -19 -2 -12 -5z"/>
<path d="M762 1327 c-38 -39 -43 -61 -6 -26 24 22 50 59 41 59 -2 0 -17 -15
-35 -33z"/>
</g>
</svg>
